<?xml version="1.0" encoding="UTF-8" standalone="no"?>
<!DOCTYPE svg PUBLIC "-//W3C//DTD SVG 1.1//EN"
 "http://www.w3.org/Graphics/SVG/1.1/DTD/svg11.dtd">
<!-- Generated by graphviz version 2.43.0 (0)
 -->
<!-- Title: oneDegreeRelationshipsDiagram Pages: 1 -->
<svg width="260pt" height="489pt"
 viewBox="0.00 0.00 260.00 489.00" xmlns="http://www.w3.org/2000/svg" xmlns:xlink="http://www.w3.org/1999/xlink">
<g id="graph0" class="graph" transform="scale(1 1) rotate(0) translate(4 485)">
<title>oneDegreeRelationshipsDiagram</title>
<polygon fill="#ffffff" stroke="transparent" points="-4,4 -4,-485 256,-485 256,4 -4,4"/>
<text text-anchor="middle" x="79.5" y="-7.2" font-family="Helvetica,sans-Serif" font-size="11.00">Generated by SchemaSpy</text>
<!-- flights -->
<g id="node1" class="node">
<title>flights</title>
<g id="a_node1"><a xlink:href="../../tables/flights.html" xlink:title="flights" target="_top">
<polygon fill="#ffffff" stroke="transparent" points="8,-37 8,-477 244,-477 244,-37 8,-37"/>
<polygon fill="#f5f5f5" stroke="transparent" points="10,-453 10,-475 242,-475 242,-453 10,-453"/>
<polygon fill="none" stroke="black" points="10,-453 10,-475 242,-475 242,-453 10,-453"/>
<text text-anchor="start" x="15" y="-462.2" font-family="Helvetica,sans-Serif" font-weight="bold" font-size="11.00">flights</text>
<text text-anchor="start" x="200" y="-461.2" font-family="Helvetica,sans-Serif" font-size="11.00">[table]</text>
<polygon fill="none" stroke="black" points="10,-431 10,-453 133,-453 133,-431 10,-431"/>
<image xlink:href="../../images/primaryKeys.png" width="11px" height="12px" preserveAspectRatio="xMinYMin meet" x="15" y="-448"/>
<text text-anchor="start" x="30" y="-439.2" font-family="Helvetica,sans-Serif" font-size="11.00">id</text>
<polygon fill="none" stroke="black" points="133,-431 133,-453 242,-453 242,-431 133,-431"/>
<text text-anchor="start" x="136" y="-439.2" font-family="Helvetica,sans-Serif" font-size="11.00">uuid[2147483647]</text>
<polygon fill="#ffffff" stroke="transparent" points="10,-409 10,-431 133,-431 133,-409 10,-409"/>
<polygon fill="none" stroke="black" points="10,-409 10,-431 133,-431 133,-409 10,-409"/>
<image xlink:href="../../images/foreignKeys.png" width="11px" height="12px" preserveAspectRatio="xMinYMin meet" x="15" y="-426"/>
<text text-anchor="start" x="30" y="-417.2" font-family="Helvetica,sans-Serif" font-size="11.00">tenant_code</text>
<polygon fill="none" stroke="black" points="133,-409 133,-431 242,-431 242,-409 133,-409"/>
<text text-anchor="start" x="136" y="-417.2" font-family="Helvetica,sans-Serif" font-size="11.00">varchar[4]</text>
<polygon fill="#ffffff" stroke="transparent" points="10,-387 10,-409 133,-409 133,-387 10,-387"/>
<polygon fill="none" stroke="black" points="10,-387 10,-409 133,-409 133,-387 10,-387"/>
<text text-anchor="start" x="30" y="-395.2" font-family="Helvetica,sans-Serif" font-size="11.00">flight_number</text>
<polygon fill="none" stroke="black" points="133,-387 133,-409 242,-409 242,-387 133,-387"/>
<text text-anchor="start" x="136" y="-395.2" font-family="Helvetica,sans-Serif" font-size="11.00">varchar[20]</text>
<polygon fill="none" stroke="black" points="10,-365 10,-387 133,-387 133,-365 10,-365"/>
<text text-anchor="start" x="30" y="-373.2" font-family="Helvetica,sans-Serif" font-size="11.00">callsign</text>
<polygon fill="none" stroke="black" points="133,-365 133,-387 242,-387 242,-365 133,-365"/>
<text text-anchor="start" x="136" y="-373.2" font-family="Helvetica,sans-Serif" font-size="11.00">varchar[20]</text>
<polygon fill="none" stroke="black" points="10,-343 10,-365 133,-365 133,-343 10,-343"/>
<text text-anchor="start" x="30" y="-351.2" font-family="Helvetica,sans-Serif" font-size="11.00">icao24</text>
<polygon fill="none" stroke="black" points="133,-343 133,-365 242,-365 242,-343 133,-343"/>
<text text-anchor="start" x="136" y="-351.2" font-family="Helvetica,sans-Serif" font-size="11.00">varchar[10]</text>
<polygon fill="none" stroke="black" points="10,-321 10,-343 133,-343 133,-321 10,-321"/>
<text text-anchor="start" x="30" y="-329.2" font-family="Helvetica,sans-Serif" font-size="11.00">origin</text>
<polygon fill="none" stroke="black" points="133,-321 133,-343 242,-343 242,-321 133,-321"/>
<text text-anchor="start" x="136" y="-329.2" font-family="Helvetica,sans-Serif" font-size="11.00">varchar[10]</text>
<polygon fill="none" stroke="black" points="10,-299 10,-321 133,-321 133,-299 10,-299"/>
<text text-anchor="start" x="30" y="-307.2" font-family="Helvetica,sans-Serif" font-size="11.00">destination</text>
<polygon fill="none" stroke="black" points="133,-299 133,-321 242,-321 242,-299 133,-299"/>
<text text-anchor="start" x="136" y="-307.2" font-family="Helvetica,sans-Serif" font-size="11.00">varchar[10]</text>
<polygon fill="none" stroke="black" points="10,-277 10,-299 133,-299 133,-277 10,-277"/>
<text text-anchor="start" x="30" y="-285.2" font-family="Helvetica,sans-Serif" font-size="11.00">latitude</text>
<polygon fill="none" stroke="black" points="133,-277 133,-299 242,-299 242,-277 133,-277"/>
<text text-anchor="start" x="136" y="-285.2" font-family="Helvetica,sans-Serif" font-size="11.00">float8[17,17]</text>
<polygon fill="none" stroke="black" points="10,-255 10,-277 133,-277 133,-255 10,-255"/>
<text text-anchor="start" x="30" y="-263.2" font-family="Helvetica,sans-Serif" font-size="11.00">longitude</text>
<polygon fill="none" stroke="black" points="133,-255 133,-277 242,-277 242,-255 133,-255"/>
<text text-anchor="start" x="136" y="-263.2" font-family="Helvetica,sans-Serif" font-size="11.00">float8[17,17]</text>
<polygon fill="none" stroke="black" points="10,-233 10,-255 133,-255 133,-233 10,-233"/>
<text text-anchor="start" x="30" y="-241.2" font-family="Helvetica,sans-Serif" font-size="11.00">altitude</text>
<polygon fill="none" stroke="black" points="133,-233 133,-255 242,-255 242,-233 133,-233"/>
<text text-anchor="start" x="136" y="-241.2" font-family="Helvetica,sans-Serif" font-size="11.00">float8[17,17]</text>
<polygon fill="none" stroke="black" points="10,-211 10,-233 133,-233 133,-211 10,-211"/>
<text text-anchor="start" x="30" y="-219.2" font-family="Helvetica,sans-Serif" font-size="11.00">speed</text>
<polygon fill="none" stroke="black" points="133,-211 133,-233 242,-233 242,-211 133,-211"/>
<text text-anchor="start" x="136" y="-219.2" font-family="Helvetica,sans-Serif" font-size="11.00">float8[17,17]</text>
<polygon fill="none" stroke="black" points="10,-189 10,-211 133,-211 133,-189 10,-189"/>
<text text-anchor="start" x="30" y="-197.2" font-family="Helvetica,sans-Serif" font-size="11.00">heading</text>
<polygon fill="none" stroke="black" points="133,-189 133,-211 242,-211 242,-189 133,-189"/>
<text text-anchor="start" x="136" y="-197.2" font-family="Helvetica,sans-Serif" font-size="11.00">float8[17,17]</text>
<polygon fill="none" stroke="black" points="10,-167 10,-189 133,-189 133,-167 10,-167"/>
<text text-anchor="start" x="30" y="-175.2" font-family="Helvetica,sans-Serif" font-size="11.00">vertical_rate</text>
<polygon fill="none" stroke="black" points="133,-167 133,-189 242,-189 242,-167 133,-167"/>
<text text-anchor="start" x="136" y="-175.2" font-family="Helvetica,sans-Serif" font-size="11.00">float8[17,17]</text>
<polygon fill="none" stroke="black" points="10,-145 10,-167 133,-167 133,-145 10,-145"/>
<text text-anchor="start" x="30" y="-153.2" font-family="Helvetica,sans-Serif" font-size="11.00">on_ground</text>
<polygon fill="none" stroke="black" points="133,-145 133,-167 242,-167 242,-145 133,-145"/>
<text text-anchor="start" x="136" y="-153.2" font-family="Helvetica,sans-Serif" font-size="11.00">bool[1]</text>
<polygon fill="none" stroke="black" points="10,-123 10,-145 133,-145 133,-123 10,-123"/>
<text text-anchor="start" x="30" y="-131.2" font-family="Helvetica,sans-Serif" font-size="11.00">squawk</text>
<polygon fill="none" stroke="black" points="133,-123 133,-145 242,-145 242,-123 133,-123"/>
<text text-anchor="start" x="136" y="-131.2" font-family="Helvetica,sans-Serif" font-size="11.00">varchar[10]</text>
<polygon fill="none" stroke="black" points="10,-101 10,-123 133,-123 133,-101 10,-101"/>
<text text-anchor="start" x="30" y="-109.2" font-family="Helvetica,sans-Serif" font-size="11.00">status</text>
<polygon fill="none" stroke="black" points="133,-101 133,-123 242,-123 242,-101 133,-101"/>
<text text-anchor="start" x="136" y="-109.2" font-family="Helvetica,sans-Serif" font-size="11.00">varchar[50]</text>
<polygon fill="none" stroke="black" points="10,-79 10,-101 133,-101 133,-79 10,-79"/>
<image xlink:href="../../images/primaryKeys.png" width="11px" height="12px" preserveAspectRatio="xMinYMin meet" x="15" y="-96"/>
<text text-anchor="start" x="30" y="-87.2" font-family="Helvetica,sans-Serif" font-size="11.00">timestamp</text>
<polygon fill="none" stroke="black" points="133,-79 133,-101 242,-101 242,-79 133,-79"/>
<text text-anchor="start" x="136" y="-87.2" font-family="Helvetica,sans-Serif" font-size="11.00">timestamptz[35,6]</text>
<polygon fill="none" stroke="black" points="10,-57 10,-79 133,-79 133,-57 10,-57"/>
<text text-anchor="start" x="30" y="-65.2" font-family="Helvetica,sans-Serif" font-size="11.00">created_at</text>
<polygon fill="none" stroke="black" points="133,-57 133,-79 242,-79 242,-57 133,-57"/>
<text text-anchor="start" x="136" y="-65.2" font-family="Helvetica,sans-Serif" font-size="11.00">timestamptz[35,6]</text>
<polygon fill="#ffffff" stroke="transparent" points="10,-39 10,-57 242,-57 242,-39 10,-39"/>
<polygon fill="none" stroke="black" points="10,-39 10,-57 242,-57 242,-39 10,-39"/>
<polygon fill="#ffffff" stroke="transparent" points="11,-40 11,-56 92,-56 92,-40 11,-40"/>
<text text-anchor="start" x="13" y="-45.2" font-family="Helvetica,sans-Serif" font-size="11.00">&lt; 0</text>
<polygon fill="#ffffff" stroke="transparent" points="92,-40 92,-56 161,-56 161,-40 92,-40"/>
<text text-anchor="start" x="122.5" y="-45.2" font-family="Helvetica,sans-Serif" font-size="11.00"> &#160;</text>
<polygon fill="#ffffff" stroke="transparent" points="161,-40 161,-56 241,-56 241,-40 161,-40"/>
<text text-anchor="start" x="219" y="-45.2" font-family="Helvetica,sans-Serif" font-size="11.00">0 &gt;</text>
<polygon fill="black" stroke="black" points="92,-40 92,-56 92,-56 92,-40 92,-40"/>
<polygon fill="black" stroke="black" points="161,-40 161,-56 161,-56 161,-40 161,-40"/>
<polygon fill="none" stroke="black" stroke-width="2" points="9,-38 9,-476 243,-476 243,-38 9,-38"/>
</a>
</g>
</g>
</g>
</svg>
