<?xml version="1.0" encoding="UTF-8" standalone="no"?>
<!DOCTYPE svg PUBLIC "-//W3C//DTD SVG 1.1//EN"
 "http://www.w3.org/Graphics/SVG/1.1/DTD/svg11.dtd">
<!-- Generated by graphviz version 2.43.0 (0)
 -->
<!-- Title: twoDegreesRelationshipsDiagramImplied Pages: 1 -->
<svg width="681pt" height="912pt"
 viewBox="0.00 0.00 681.00 911.93" xmlns="http://www.w3.org/2000/svg" xmlns:xlink="http://www.w3.org/1999/xlink">
<g id="graph0" class="graph" transform="scale(1 1) rotate(0) translate(4 907.93)">
<title>twoDegreesRelationshipsDiagramImplied</title>
<polygon fill="#ffffff" stroke="transparent" points="-4,4 -4,-907.93 677,-907.93 677,4 -4,4"/>
<text text-anchor="middle" x="79.5" y="-7.2" font-family="Helvetica,sans-Serif" font-size="11.00">Generated by SchemaSpy</text>
<!-- audit_logs -->
<g id="node1" class="node">
<title>audit_logs</title>
<g id="a_node1"><a xlink:href="../../tables/audit_logs.html" xlink:title="audit_logs" target="_top">
<polygon fill="#ffffff" stroke="transparent" points="515.5,-819 515.5,-877 636.5,-877 636.5,-819 515.5,-819"/>
<polygon fill="#f5f5f5" stroke="transparent" points="516,-855 516,-877 637,-877 637,-855 516,-855"/>
<polygon fill="none" stroke="black" points="516,-855 516,-877 637,-877 637,-855 516,-855"/>
<text text-anchor="start" x="521" y="-864.2" font-family="Helvetica,sans-Serif" font-weight="bold" font-size="11.00">audit_logs</text>
<text text-anchor="start" x="595" y="-863.2" font-family="Helvetica,sans-Serif" font-size="11.00">[table]</text>
<polygon fill="none" stroke="black" points="516,-837 516,-855 637,-855 637,-837 516,-837"/>
<text text-anchor="start" x="519" y="-843.2" font-family="Helvetica,sans-Serif" font-size="11.00">...</text>
<polygon fill="#ffffff" stroke="transparent" points="516,-819 516,-837 637,-837 637,-819 516,-819"/>
<polygon fill="none" stroke="black" points="516,-819 516,-837 637,-837 637,-819 516,-819"/>
<polygon fill="#ffffff" stroke="transparent" points="517,-820 517,-836 565,-836 565,-820 517,-820"/>
<text text-anchor="start" x="519" y="-825.2" font-family="Helvetica,sans-Serif" font-size="11.00">&lt; 2</text>
<polygon fill="#ffffff" stroke="transparent" points="565,-820 565,-836 601,-836 601,-820 565,-820"/>
<text text-anchor="start" x="579" y="-825.2" font-family="Helvetica,sans-Serif" font-size="11.00"> &#160;</text>
<polygon fill="#ffffff" stroke="transparent" points="601,-820 601,-836 636,-836 636,-820 601,-820"/>
<text text-anchor="start" x="626" y="-825.2" font-family="Helvetica,sans-Serif" font-size="11.00"> &#160;</text>
<polygon fill="black" stroke="black" points="565,-820 565,-836 565,-836 565,-820 565,-820"/>
<polygon fill="black" stroke="black" points="601,-820 601,-836 601,-836 601,-820 601,-820"/>
</a>
</g>
</g>
<!-- tenants -->
<g id="node2" class="node">
<title>tenants</title>
<g id="a_node2"><a xlink:href="../../tables/tenants.html" xlink:title="tenants" target="_top">
<polygon fill="#ffffff" stroke="transparent" points="8,-318 8,-398 111,-398 111,-318 8,-318"/>
<polygon fill="#f5f5f5" stroke="transparent" points="8.5,-376 8.5,-398 111.5,-398 111.5,-376 8.5,-376"/>
<polygon fill="none" stroke="black" points="8.5,-376 8.5,-398 111.5,-398 111.5,-376 8.5,-376"/>
<text text-anchor="start" x="13.5" y="-385.2" font-family="Helvetica,sans-Serif" font-weight="bold" font-size="11.00">tenants</text>
<text text-anchor="start" x="69.5" y="-384.2" font-family="Helvetica,sans-Serif" font-size="11.00">[table]</text>
<polygon fill="none" stroke="black" points="8.5,-354 8.5,-376 111.5,-376 111.5,-354 8.5,-354"/>
<image xlink:href="../../images/primaryKeys.png" width="11px" height="12px" preserveAspectRatio="xMinYMin meet" x="13.5" y="-371"/>
<text text-anchor="start" x="31.5" y="-362.2" font-family="Helvetica,sans-Serif" font-size="11.00">code</text>
<polygon fill="none" stroke="black" points="8.5,-336 8.5,-354 111.5,-354 111.5,-336 8.5,-336"/>
<text text-anchor="start" x="11.5" y="-342.2" font-family="Helvetica,sans-Serif" font-size="11.00">...</text>
<polygon fill="#ffffff" stroke="transparent" points="8.5,-318 8.5,-336 111.5,-336 111.5,-318 8.5,-318"/>
<polygon fill="none" stroke="black" points="8.5,-318 8.5,-336 111.5,-336 111.5,-318 8.5,-318"/>
<polygon fill="#ffffff" stroke="transparent" points="9.5,-319 9.5,-335 37.5,-335 37.5,-319 9.5,-319"/>
<text text-anchor="start" x="11.5" y="-324.2" font-family="Helvetica,sans-Serif" font-size="11.00"> &#160;</text>
<polygon fill="#ffffff" stroke="transparent" points="37.5,-319 37.5,-335 64.5,-335 64.5,-319 37.5,-319"/>
<text text-anchor="start" x="47" y="-324.2" font-family="Helvetica,sans-Serif" font-size="11.00"> &#160;</text>
<polygon fill="#ffffff" stroke="transparent" points="64.5,-319 64.5,-335 110.5,-335 110.5,-319 64.5,-319"/>
<text text-anchor="start" x="81.5" y="-324.2" font-family="Helvetica,sans-Serif" font-size="11.00">11 &gt;</text>
<polygon fill="black" stroke="black" points="37.5,-319 37.5,-335 37.5,-335 37.5,-319 37.5,-319"/>
<polygon fill="black" stroke="black" points="64.5,-319 64.5,-335 64.5,-335 64.5,-319 64.5,-319"/>
</a>
</g>
</g>
<!-- audit_logs&#45;&gt;tenants -->
<g id="edge1" class="edge">
<title>audit_logs:w&#45;&gt;tenants:e</title>
<path fill="none" stroke="black" d="M500.49,-846.97C480.6,-849.84 471.72,-858.24 446,-861 316.08,-874.96 247.99,-949.65 152,-861 111.39,-823.49 167.79,-365 112.5,-365"/>
<polygon fill="black" stroke="black" points="507.02,-846.53 515.24,-849.59 511.01,-846.27 515,-846 515,-846 515,-846 511.01,-846.27 514.76,-842.41 507.02,-846.53 507.02,-846.53"/>
<ellipse fill="none" stroke="black" cx="503.83" cy="-846.75" rx="3.2" ry="3.2"/>
</g>
<!-- users -->
<g id="node3" class="node">
<title>users</title>
<g id="a_node3"><a xlink:href="../../tables/users.html" xlink:title="users" target="_top">
<polygon fill="#ffffff" stroke="transparent" points="256,-792 256,-850 342,-850 342,-792 256,-792"/>
<polygon fill="#f5f5f5" stroke="transparent" points="256,-828 256,-850 342,-850 342,-828 256,-828"/>
<polygon fill="none" stroke="black" points="256,-828 256,-850 342,-850 342,-828 256,-828"/>
<text text-anchor="start" x="261" y="-837.2" font-family="Helvetica,sans-Serif" font-weight="bold" font-size="11.00">users</text>
<text text-anchor="start" x="300" y="-836.2" font-family="Helvetica,sans-Serif" font-size="11.00">[table]</text>
<polygon fill="none" stroke="black" points="256,-810 256,-828 342,-828 342,-810 256,-810"/>
<text text-anchor="start" x="259" y="-816.2" font-family="Helvetica,sans-Serif" font-size="11.00">...</text>
<polygon fill="#ffffff" stroke="transparent" points="256,-792 256,-810 342,-810 342,-792 256,-792"/>
<polygon fill="none" stroke="black" points="256,-792 256,-810 342,-810 342,-792 256,-792"/>
<polygon fill="#ffffff" stroke="transparent" points="257,-793 257,-809 289,-809 289,-793 257,-793"/>
<text text-anchor="start" x="259" y="-798.2" font-family="Helvetica,sans-Serif" font-size="11.00">&lt; 1</text>
<polygon fill="#ffffff" stroke="transparent" points="289,-793 289,-809 309,-809 309,-793 289,-793"/>
<text text-anchor="start" x="295" y="-798.2" font-family="Helvetica,sans-Serif" font-size="11.00"> &#160;</text>
<polygon fill="#ffffff" stroke="transparent" points="309,-793 309,-809 341,-809 341,-793 309,-793"/>
<text text-anchor="start" x="319" y="-798.2" font-family="Helvetica,sans-Serif" font-size="11.00">1 &gt;</text>
<polygon fill="black" stroke="black" points="289,-793 289,-809 289,-809 289,-793 289,-793"/>
<polygon fill="black" stroke="black" points="309,-793 309,-809 309,-809 309,-793 309,-793"/>
</a>
</g>
</g>
<!-- audit_logs&#45;&gt;users -->
<g id="edge2" class="edge">
<title>audit_logs:w&#45;&gt;users:e</title>
<path fill="none" stroke="black" d="M500.34,-845.66C435.06,-842.53 415.24,-819 343,-819"/>
<polygon fill="black" stroke="black" points="507,-845.81 514.92,-849.6 511,-845.91 515,-846 515,-846 515,-846 511,-845.91 515.08,-842.4 507,-845.81 507,-845.81"/>
<ellipse fill="none" stroke="black" cx="503.8" cy="-845.74" rx="3.2" ry="3.2"/>
</g>
<!-- users&#45;&gt;tenants -->
<g id="edge12" class="edge">
<title>users:w&#45;&gt;tenants:e</title>
<path fill="none" stroke="black" d="M240.38,-819C201.13,-818.86 178.68,-816.37 152,-782 94.92,-708.48 205.58,-365 112.5,-365"/>
<polygon fill="black" stroke="black" points="247,-819 255,-822.6 251,-819 255,-819 255,-819 255,-819 251,-819 255,-815.4 247,-819 247,-819"/>
<ellipse fill="none" stroke="black" cx="243.8" cy="-819" rx="3.2" ry="3.2"/>
</g>
<!-- flights -->
<g id="node4" class="node">
<title>flights</title>
<g id="a_node4"><a xlink:href="../../tables/flights.html" xlink:title="flights" target="_top">
<polygon fill="#ffffff" stroke="transparent" points="252,-713 252,-771 346,-771 346,-713 252,-713"/>
<polygon fill="#f5f5f5" stroke="transparent" points="252,-749 252,-771 346,-771 346,-749 252,-749"/>
<polygon fill="none" stroke="black" points="252,-749 252,-771 346,-771 346,-749 252,-749"/>
<text text-anchor="start" x="257" y="-758.2" font-family="Helvetica,sans-Serif" font-weight="bold" font-size="11.00">flights</text>
<text text-anchor="start" x="304" y="-757.2" font-family="Helvetica,sans-Serif" font-size="11.00">[table]</text>
<polygon fill="none" stroke="black" points="252,-731 252,-749 346,-749 346,-731 252,-731"/>
<text text-anchor="start" x="255" y="-737.2" font-family="Helvetica,sans-Serif" font-size="11.00">...</text>
<polygon fill="#ffffff" stroke="transparent" points="252,-713 252,-731 346,-731 346,-713 252,-713"/>
<polygon fill="none" stroke="black" points="252,-713 252,-731 346,-731 346,-713 252,-713"/>
<polygon fill="#ffffff" stroke="transparent" points="253,-714 253,-730 292,-730 292,-714 253,-714"/>
<text text-anchor="start" x="255" y="-719.2" font-family="Helvetica,sans-Serif" font-size="11.00">&lt; 1</text>
<polygon fill="#ffffff" stroke="transparent" points="292,-714 292,-730 319,-730 319,-714 292,-714"/>
<text text-anchor="start" x="301.5" y="-719.2" font-family="Helvetica,sans-Serif" font-size="11.00"> &#160;</text>
<polygon fill="#ffffff" stroke="transparent" points="319,-714 319,-730 345,-730 345,-714 319,-714"/>
<text text-anchor="start" x="335" y="-719.2" font-family="Helvetica,sans-Serif" font-size="11.00"> &#160;</text>
<polygon fill="black" stroke="black" points="292,-714 292,-730 292,-730 292,-714 292,-714"/>
<polygon fill="black" stroke="black" points="319,-714 319,-730 319,-730 319,-714 319,-714"/>
</a>
</g>
</g>
<!-- flights&#45;&gt;tenants -->
<g id="edge3" class="edge">
<title>flights:w&#45;&gt;tenants:e</title>
<path fill="none" stroke="black" stroke-dasharray="5,2" d="M236.41,-739.95C198.91,-739.55 177.81,-735.93 152,-703 105.35,-643.48 188.12,-365 112.5,-365"/>
<polygon fill="black" stroke="black" points="243,-739.97 250.99,-743.6 247,-739.99 251,-740 251,-740 251,-740 247,-739.99 251.01,-736.4 243,-739.97 243,-739.97"/>
<ellipse fill="none" stroke="black" cx="239.8" cy="-739.96" rx="3.2" ry="3.2"/>
</g>
<!-- flights_hourly -->
<g id="node5" class="node">
<title>flights_hourly</title>
<g id="a_node5"><a xlink:href="../../tables/flights_hourly.html" xlink:title="flights_hourly" target="_top">
<polygon fill="#ffffff" stroke="transparent" points="226.5,-652 226.5,-692 371.5,-692 371.5,-652 226.5,-652"/>
<polygon fill="#f5f5f5" stroke="transparent" points="227,-670 227,-692 372,-692 372,-670 227,-670"/>
<polygon fill="none" stroke="black" points="227,-670 227,-692 372,-692 372,-670 227,-670"/>
<text text-anchor="start" x="232" y="-679.2" font-family="Helvetica,sans-Serif" font-weight="bold" font-size="11.00">flights_hourly</text>
<text text-anchor="start" x="332" y="-678.2" font-family="Helvetica,sans-Serif" font-size="11.00">[view]</text>
<polygon fill="none" stroke="black" points="227,-652 227,-670 372,-670 372,-652 227,-652"/>
<text text-anchor="start" x="230" y="-658.2" font-family="Helvetica,sans-Serif" font-size="11.00">...</text>
</a>
</g>
</g>
<!-- flights_hourly&#45;&gt;tenants -->
<g id="edge4" class="edge">
<title>flights_hourly:w&#45;&gt;tenants:e</title>
<path fill="none" stroke="black" stroke-dasharray="5,2" d="M211.56,-661.3C186.62,-662.18 171.21,-663.44 152,-642 110.51,-595.69 174.68,-365 112.5,-365"/>
<polygon fill="black" stroke="black" points="218,-661.17 226.08,-664.6 222,-661.08 226,-661 226,-661 226,-661 222,-661.08 225.92,-657.4 218,-661.17 218,-661.17"/>
<ellipse fill="none" stroke="black" cx="214.8" cy="-661.24" rx="3.2" ry="3.2"/>
</g>
<!-- sensor_alerts -->
<g id="node6" class="node">
<title>sensor_alerts</title>
<g id="a_node6"><a xlink:href="../../tables/sensor_alerts.html" xlink:title="sensor_alerts" target="_top">
<polygon fill="#ffffff" stroke="transparent" points="183.5,-389 183.5,-631 414.5,-631 414.5,-389 183.5,-389"/>
<polygon fill="#f5f5f5" stroke="transparent" points="186,-607 186,-629 413,-629 413,-607 186,-607"/>
<polygon fill="none" stroke="black" points="186,-607 186,-629 413,-629 413,-607 186,-607"/>
<text text-anchor="start" x="191" y="-616.2" font-family="Helvetica,sans-Serif" font-weight="bold" font-size="11.00">sensor_alerts</text>
<text text-anchor="start" x="371" y="-615.2" font-family="Helvetica,sans-Serif" font-size="11.00">[table]</text>
<polygon fill="none" stroke="black" points="186,-585 186,-607 304,-607 304,-585 186,-585"/>
<image xlink:href="../../images/primaryKeys.png" width="11px" height="12px" preserveAspectRatio="xMinYMin meet" x="191" y="-602"/>
<text text-anchor="start" x="206" y="-593.2" font-family="Helvetica,sans-Serif" font-size="11.00">alert_id</text>
<polygon fill="none" stroke="black" points="304,-585 304,-607 413,-607 413,-585 304,-585"/>
<text text-anchor="start" x="307" y="-593.2" font-family="Helvetica,sans-Serif" font-size="11.00">uuid[2147483647]</text>
<polygon fill="#ffffff" stroke="transparent" points="186,-563 186,-585 304,-585 304,-563 186,-563"/>
<polygon fill="none" stroke="black" points="186,-563 186,-585 304,-585 304,-563 186,-563"/>
<image xlink:href="../../images/foreignKeys.png" width="11px" height="12px" preserveAspectRatio="xMinYMin meet" x="191" y="-580"/>
<text text-anchor="start" x="206" y="-571.2" font-family="Helvetica,sans-Serif" font-size="11.00">tenant_code</text>
<polygon fill="none" stroke="black" points="304,-563 304,-585 413,-585 413,-563 304,-563"/>
<text text-anchor="start" x="307" y="-571.2" font-family="Helvetica,sans-Serif" font-size="11.00">varchar[4]</text>
<polygon fill="#ffffff" stroke="transparent" points="186,-541 186,-563 304,-563 304,-541 186,-541"/>
<polygon fill="none" stroke="black" points="186,-541 186,-563 304,-563 304,-541 186,-541"/>
<text text-anchor="start" x="206" y="-549.2" font-family="Helvetica,sans-Serif" font-size="11.00">type</text>
<polygon fill="none" stroke="black" points="304,-541 304,-563 413,-563 413,-541 304,-541"/>
<text text-anchor="start" x="307" y="-549.2" font-family="Helvetica,sans-Serif" font-size="11.00">varchar[50]</text>
<polygon fill="none" stroke="black" points="186,-519 186,-541 304,-541 304,-519 186,-519"/>
<text text-anchor="start" x="206" y="-527.2" font-family="Helvetica,sans-Serif" font-size="11.00">entity_id</text>
<polygon fill="none" stroke="black" points="304,-519 304,-541 413,-541 413,-519 304,-519"/>
<text text-anchor="start" x="307" y="-527.2" font-family="Helvetica,sans-Serif" font-size="11.00">varchar[100]</text>
<polygon fill="none" stroke="black" points="186,-497 186,-519 304,-519 304,-497 186,-497"/>
<text text-anchor="start" x="206" y="-505.2" font-family="Helvetica,sans-Serif" font-size="11.00">value</text>
<polygon fill="none" stroke="black" points="304,-497 304,-519 413,-519 413,-497 304,-497"/>
<text text-anchor="start" x="307" y="-505.2" font-family="Helvetica,sans-Serif" font-size="11.00">float8[17,17]</text>
<polygon fill="none" stroke="black" points="186,-475 186,-497 304,-497 304,-475 186,-475"/>
<text text-anchor="start" x="206" y="-483.2" font-family="Helvetica,sans-Serif" font-size="11.00">latitude</text>
<polygon fill="none" stroke="black" points="304,-475 304,-497 413,-497 413,-475 304,-475"/>
<text text-anchor="start" x="307" y="-483.2" font-family="Helvetica,sans-Serif" font-size="11.00">float8[17,17]</text>
<polygon fill="none" stroke="black" points="186,-453 186,-475 304,-475 304,-453 186,-453"/>
<text text-anchor="start" x="206" y="-461.2" font-family="Helvetica,sans-Serif" font-size="11.00">longitude</text>
<polygon fill="none" stroke="black" points="304,-453 304,-475 413,-475 413,-453 304,-453"/>
<text text-anchor="start" x="307" y="-461.2" font-family="Helvetica,sans-Serif" font-size="11.00">float8[17,17]</text>
<polygon fill="none" stroke="black" points="186,-431 186,-453 304,-453 304,-431 186,-431"/>
<image xlink:href="../../images/primaryKeys.png" width="11px" height="12px" preserveAspectRatio="xMinYMin meet" x="191" y="-448"/>
<text text-anchor="start" x="206" y="-439.2" font-family="Helvetica,sans-Serif" font-size="11.00">timestamp</text>
<polygon fill="none" stroke="black" points="304,-431 304,-453 413,-453 413,-431 304,-431"/>
<text text-anchor="start" x="307" y="-439.2" font-family="Helvetica,sans-Serif" font-size="11.00">timestamptz[35,6]</text>
<polygon fill="none" stroke="black" points="186,-409 186,-431 304,-431 304,-409 186,-409"/>
<text text-anchor="start" x="206" y="-417.2" font-family="Helvetica,sans-Serif" font-size="11.00">created_at</text>
<polygon fill="none" stroke="black" points="304,-409 304,-431 413,-431 413,-409 304,-409"/>
<text text-anchor="start" x="307" y="-417.2" font-family="Helvetica,sans-Serif" font-size="11.00">timestamptz[35,6]</text>
<polygon fill="#ffffff" stroke="transparent" points="186,-391 186,-409 413,-409 413,-391 186,-391"/>
<polygon fill="none" stroke="black" points="186,-391 186,-409 413,-409 413,-391 186,-391"/>
<polygon fill="#ffffff" stroke="transparent" points="187,-392 187,-408 266,-408 266,-392 187,-392"/>
<text text-anchor="start" x="189" y="-397.2" font-family="Helvetica,sans-Serif" font-size="11.00">&lt; 1</text>
<polygon fill="#ffffff" stroke="transparent" points="266,-392 266,-408 333,-408 333,-392 266,-392"/>
<text text-anchor="start" x="295.5" y="-397.2" font-family="Helvetica,sans-Serif" font-size="11.00"> &#160;</text>
<polygon fill="#ffffff" stroke="transparent" points="333,-392 333,-408 412,-408 412,-392 333,-392"/>
<text text-anchor="start" x="390" y="-397.2" font-family="Helvetica,sans-Serif" font-size="11.00">0 &gt;</text>
<polygon fill="black" stroke="black" points="266,-392 266,-408 266,-408 266,-392 266,-392"/>
<polygon fill="black" stroke="black" points="333,-392 333,-408 333,-408 333,-392 333,-392"/>
<polygon fill="none" stroke="black" stroke-width="2" points="184.5,-390 184.5,-630 413.5,-630 413.5,-390 184.5,-390"/>
</a>
</g>
</g>
<!-- sensor_alerts&#45;&gt;tenants -->
<g id="edge5" class="edge">
<title>sensor_alerts:w&#45;&gt;tenants:e</title>
<path fill="none" stroke="black" stroke-dasharray="5,2" d="M170.35,-572.06C100.03,-550.99 205.25,-365 112.5,-365"/>
<polygon fill="black" stroke="black" points="177.07,-572.95 184.53,-577.57 181.03,-573.48 185,-574 185,-574 185,-574 181.03,-573.48 185.47,-570.43 177.07,-572.95 177.07,-572.95"/>
<ellipse fill="none" stroke="black" cx="173.9" cy="-572.53" rx="3.2" ry="3.2"/>
</g>
<!-- turnaround_alerts -->
<g id="node7" class="node">
<title>turnaround_alerts</title>
<g id="a_node7"><a xlink:href="../../tables/turnaround_alerts.html" xlink:title="turnaround_alerts" target="_top">
<polygon fill="#ffffff" stroke="transparent" points="487,-325 487,-383 665,-383 665,-325 487,-325"/>
<polygon fill="#f5f5f5" stroke="transparent" points="487,-361 487,-383 665,-383 665,-361 487,-361"/>
<polygon fill="none" stroke="black" points="487,-361 487,-383 665,-383 665,-361 487,-361"/>
<text text-anchor="start" x="492" y="-370.2" font-family="Helvetica,sans-Serif" font-weight="bold" font-size="11.00">turnaround_alerts</text>
<text text-anchor="start" x="623" y="-369.2" font-family="Helvetica,sans-Serif" font-size="11.00">[table]</text>
<polygon fill="none" stroke="black" points="487,-343 487,-361 665,-361 665,-343 487,-343"/>
<text text-anchor="start" x="490" y="-349.2" font-family="Helvetica,sans-Serif" font-size="11.00">...</text>
<polygon fill="#ffffff" stroke="transparent" points="487,-325 487,-343 665,-343 665,-325 487,-325"/>
<polygon fill="none" stroke="black" points="487,-325 487,-343 665,-343 665,-325 487,-325"/>
<polygon fill="#ffffff" stroke="transparent" points="488,-326 488,-342 555,-342 555,-326 488,-326"/>
<text text-anchor="start" x="490" y="-331.2" font-family="Helvetica,sans-Serif" font-size="11.00">&lt; 2</text>
<polygon fill="#ffffff" stroke="transparent" points="555,-326 555,-342 610,-342 610,-326 555,-326"/>
<text text-anchor="start" x="578.5" y="-331.2" font-family="Helvetica,sans-Serif" font-size="11.00"> &#160;</text>
<polygon fill="#ffffff" stroke="transparent" points="610,-326 610,-342 664,-342 664,-326 610,-326"/>
<text text-anchor="start" x="654" y="-331.2" font-family="Helvetica,sans-Serif" font-size="11.00"> &#160;</text>
<polygon fill="black" stroke="black" points="555,-326 555,-342 555,-342 555,-326 555,-326"/>
<polygon fill="black" stroke="black" points="610,-326 610,-342 610,-342 610,-326 610,-326"/>
</a>
</g>
</g>
<!-- turnaround_alerts&#45;&gt;tenants -->
<g id="edge7" class="edge">
<title>turnaround_alerts:w&#45;&gt;tenants:e</title>
<path fill="none" stroke="black" stroke-dasharray="5,2" d="M471.25,-352.04C317.28,-352.78 273.57,-365 112.5,-365"/>
<polygon fill="black" stroke="black" points="478,-352.02 486.01,-355.6 482,-352.01 486,-352 486,-352 486,-352 482,-352.01 485.99,-348.4 478,-352.02 478,-352.02"/>
<ellipse fill="none" stroke="black" cx="474.8" cy="-352.03" rx="3.2" ry="3.2"/>
</g>
<!-- turnaround_sessions -->
<g id="node8" class="node">
<title>turnaround_sessions</title>
<g id="a_node8"><a xlink:href="../../tables/turnaround_sessions.html" xlink:title="turnaround_sessions" target="_top">
<polygon fill="#ffffff" stroke="transparent" points="200,-283 200,-341 398,-341 398,-283 200,-283"/>
<polygon fill="#f5f5f5" stroke="transparent" points="200,-319 200,-341 398,-341 398,-319 200,-319"/>
<polygon fill="none" stroke="black" points="200,-319 200,-341 398,-341 398,-319 200,-319"/>
<text text-anchor="start" x="205" y="-328.2" font-family="Helvetica,sans-Serif" font-weight="bold" font-size="11.00">turnaround_sessions</text>
<text text-anchor="start" x="356" y="-327.2" font-family="Helvetica,sans-Serif" font-size="11.00">[table]</text>
<polygon fill="none" stroke="black" points="200,-301 200,-319 398,-319 398,-301 200,-301"/>
<text text-anchor="start" x="203" y="-307.2" font-family="Helvetica,sans-Serif" font-size="11.00">...</text>
<polygon fill="#ffffff" stroke="transparent" points="200,-283 200,-301 398,-301 398,-283 200,-283"/>
<polygon fill="none" stroke="black" points="200,-283 200,-301 398,-301 398,-283 200,-283"/>
<polygon fill="#ffffff" stroke="transparent" points="201,-284 201,-300 271,-300 271,-284 201,-284"/>
<text text-anchor="start" x="203" y="-289.2" font-family="Helvetica,sans-Serif" font-size="11.00">&lt; 1</text>
<polygon fill="#ffffff" stroke="transparent" points="271,-284 271,-300 328,-300 328,-284 271,-284"/>
<text text-anchor="start" x="295.5" y="-289.2" font-family="Helvetica,sans-Serif" font-size="11.00"> &#160;</text>
<polygon fill="#ffffff" stroke="transparent" points="328,-284 328,-300 397,-300 397,-284 328,-284"/>
<text text-anchor="start" x="375" y="-289.2" font-family="Helvetica,sans-Serif" font-size="11.00">2 &gt;</text>
<polygon fill="black" stroke="black" points="271,-284 271,-300 271,-300 271,-284 271,-284"/>
<polygon fill="black" stroke="black" points="328,-284 328,-300 328,-300 328,-284 328,-284"/>
</a>
</g>
</g>
<!-- turnaround_alerts&#45;&gt;turnaround_sessions -->
<g id="edge6" class="edge">
<title>turnaround_alerts:w&#45;&gt;turnaround_sessions:e</title>
<path fill="none" stroke="black" d="M471.7,-350.2C442.13,-342.16 436.57,-310 399,-310"/>
<polygon fill="black" stroke="black" points="478.06,-351 485.55,-355.57 482.03,-351.5 486,-352 486,-352 486,-352 482.03,-351.5 486.45,-348.43 478.06,-351 478.06,-351"/>
<ellipse fill="none" stroke="black" cx="474.89" cy="-350.6" rx="3.2" ry="3.2"/>
</g>
<!-- turnaround_sessions&#45;&gt;tenants -->
<g id="edge9" class="edge">
<title>turnaround_sessions:w&#45;&gt;tenants:e</title>
<path fill="none" stroke="black" stroke-dasharray="5,2" d="M184.48,-312.22C153.82,-322.51 152.54,-365 112.5,-365"/>
<polygon fill="black" stroke="black" points="191.09,-311.21 199.55,-313.56 195.05,-310.61 199,-310 199,-310 199,-310 195.05,-310.61 198.45,-306.44 191.09,-311.21 191.09,-311.21"/>
<ellipse fill="none" stroke="black" cx="187.93" cy="-311.7" rx="3.2" ry="3.2"/>
</g>
<!-- turnaround_events -->
<g id="node9" class="node">
<title>turnaround_events</title>
<g id="a_node9"><a xlink:href="../../tables/turnaround_events.html" xlink:title="turnaround_events" target="_top">
<polygon fill="#ffffff" stroke="transparent" points="206.5,-177 206.5,-235 391.5,-235 391.5,-177 206.5,-177"/>
<polygon fill="#f5f5f5" stroke="transparent" points="207,-213 207,-235 392,-235 392,-213 207,-213"/>
<polygon fill="none" stroke="black" points="207,-213 207,-235 392,-235 392,-213 207,-213"/>
<text text-anchor="start" x="212" y="-222.2" font-family="Helvetica,sans-Serif" font-weight="bold" font-size="11.00">turnaround_events</text>
<text text-anchor="start" x="350" y="-221.2" font-family="Helvetica,sans-Serif" font-size="11.00">[table]</text>
<polygon fill="none" stroke="black" points="207,-195 207,-213 392,-213 392,-195 207,-195"/>
<text text-anchor="start" x="210" y="-201.2" font-family="Helvetica,sans-Serif" font-size="11.00">...</text>
<polygon fill="#ffffff" stroke="transparent" points="207,-177 207,-195 392,-195 392,-177 207,-177"/>
<polygon fill="none" stroke="black" points="207,-177 207,-195 392,-195 392,-177 207,-177"/>
<polygon fill="#ffffff" stroke="transparent" points="208,-178 208,-194 277,-194 277,-178 208,-178"/>
<text text-anchor="start" x="210" y="-183.2" font-family="Helvetica,sans-Serif" font-size="11.00">&lt; 1</text>
<polygon fill="#ffffff" stroke="transparent" points="277,-178 277,-194 334,-194 334,-178 277,-178"/>
<text text-anchor="start" x="301.5" y="-183.2" font-family="Helvetica,sans-Serif" font-size="11.00"> &#160;</text>
<polygon fill="#ffffff" stroke="transparent" points="334,-178 334,-194 391,-194 391,-178 334,-178"/>
<text text-anchor="start" x="381" y="-183.2" font-family="Helvetica,sans-Serif" font-size="11.00"> &#160;</text>
<polygon fill="black" stroke="black" points="277,-178 277,-194 277,-194 277,-178 277,-178"/>
<polygon fill="black" stroke="black" points="334,-178 334,-194 334,-194 334,-178 334,-178"/>
</a>
</g>
</g>
<!-- turnaround_events&#45;&gt;tenants -->
<g id="edge8" class="edge">
<title>turnaround_events:w&#45;&gt;tenants:e</title>
<path fill="none" stroke="black" stroke-dasharray="5,2" d="M191.47,-205.79C172.53,-211.13 166.52,-227.88 152,-249 121.15,-293.88 166.96,-365 112.5,-365"/>
<polygon fill="black" stroke="black" points="198.06,-204.98 206.44,-207.57 202.03,-204.49 206,-204 206,-204 206,-204 202.03,-204.49 205.56,-200.43 198.06,-204.98 198.06,-204.98"/>
<ellipse fill="none" stroke="black" cx="194.88" cy="-205.37" rx="3.2" ry="3.2"/>
</g>
<!-- turnaround_tasks -->
<g id="node10" class="node">
<title>turnaround_tasks</title>
<g id="a_node10"><a xlink:href="../../tables/turnaround_tasks.html" xlink:title="turnaround_tasks" target="_top">
<polygon fill="#ffffff" stroke="transparent" points="488.5,-239 488.5,-297 663.5,-297 663.5,-239 488.5,-239"/>
<polygon fill="#f5f5f5" stroke="transparent" points="489,-275 489,-297 664,-297 664,-275 489,-275"/>
<polygon fill="none" stroke="black" points="489,-275 489,-297 664,-297 664,-275 489,-275"/>
<text text-anchor="start" x="494" y="-284.2" font-family="Helvetica,sans-Serif" font-weight="bold" font-size="11.00">turnaround_tasks</text>
<text text-anchor="start" x="622" y="-283.2" font-family="Helvetica,sans-Serif" font-size="11.00">[table]</text>
<polygon fill="none" stroke="black" points="489,-257 489,-275 664,-275 664,-257 489,-257"/>
<text text-anchor="start" x="492" y="-263.2" font-family="Helvetica,sans-Serif" font-size="11.00">...</text>
<polygon fill="#ffffff" stroke="transparent" points="489,-239 489,-257 664,-257 664,-239 489,-239"/>
<polygon fill="none" stroke="black" points="489,-239 489,-257 664,-257 664,-239 489,-239"/>
<polygon fill="#ffffff" stroke="transparent" points="490,-240 490,-256 556,-256 556,-240 490,-240"/>
<text text-anchor="start" x="492" y="-245.2" font-family="Helvetica,sans-Serif" font-size="11.00">&lt; 2</text>
<polygon fill="#ffffff" stroke="transparent" points="556,-240 556,-256 610,-256 610,-240 556,-240"/>
<text text-anchor="start" x="579" y="-245.2" font-family="Helvetica,sans-Serif" font-size="11.00"> &#160;</text>
<polygon fill="#ffffff" stroke="transparent" points="610,-240 610,-256 663,-256 663,-240 610,-240"/>
<text text-anchor="start" x="653" y="-245.2" font-family="Helvetica,sans-Serif" font-size="11.00"> &#160;</text>
<polygon fill="black" stroke="black" points="556,-240 556,-256 556,-256 556,-240 556,-240"/>
<polygon fill="black" stroke="black" points="610,-240 610,-256 610,-256 610,-240 610,-240"/>
</a>
</g>
</g>
<!-- turnaround_tasks&#45;&gt;tenants -->
<g id="edge11" class="edge">
<title>turnaround_tasks:w&#45;&gt;tenants:e</title>
<path fill="none" stroke="black" stroke-dasharray="5,2" d="M473.38,-265.65C390.05,-262.13 210.24,-233.75 152,-273 115.1,-297.87 157,-365 112.5,-365"/>
<polygon fill="black" stroke="black" points="480,-265.81 487.91,-269.6 484,-265.91 488,-266 488,-266 488,-266 484,-265.91 488.09,-262.4 480,-265.81 480,-265.81"/>
<ellipse fill="none" stroke="black" cx="476.8" cy="-265.73" rx="3.2" ry="3.2"/>
</g>
<!-- turnaround_tasks&#45;&gt;turnaround_sessions -->
<g id="edge10" class="edge">
<title>turnaround_tasks:w&#45;&gt;turnaround_sessions:e</title>
<path fill="none" stroke="black" d="M473.32,-267.89C443.01,-276.31 437.61,-310 399,-310"/>
<polygon fill="black" stroke="black" points="480.07,-267.02 488.46,-269.57 484.03,-266.51 488,-266 488,-266 488,-266 484.03,-266.51 487.54,-262.43 480.07,-267.02 480.07,-267.02"/>
<ellipse fill="none" stroke="black" cx="476.89" cy="-267.43" rx="3.2" ry="3.2"/>
</g>
<!-- vehicle_speed_violations_hourly -->
<g id="node11" class="node">
<title>vehicle_speed_violations_hourly</title>
<g id="a_node11"><a xlink:href="../../tables/vehicle_speed_violations_hourly.html" xlink:title="vehicle_speed_violations_hourly" target="_top">
<polygon fill="#ffffff" stroke="transparent" points="160,-116 160,-156 438,-156 438,-116 160,-116"/>
<polygon fill="#f5f5f5" stroke="transparent" points="160,-134 160,-156 438,-156 438,-134 160,-134"/>
<polygon fill="none" stroke="black" points="160,-134 160,-156 438,-156 438,-134 160,-134"/>
<text text-anchor="start" x="165" y="-143.2" font-family="Helvetica,sans-Serif" font-weight="bold" font-size="11.00">vehicle_speed_violations_hourly</text>
<text text-anchor="start" x="398" y="-142.2" font-family="Helvetica,sans-Serif" font-size="11.00">[view]</text>
<polygon fill="none" stroke="black" points="160,-116 160,-134 438,-134 438,-116 160,-116"/>
<text text-anchor="start" x="163" y="-122.2" font-family="Helvetica,sans-Serif" font-size="11.00">...</text>
</a>
</g>
</g>
<!-- vehicle_speed_violations_hourly&#45;&gt;tenants -->
<g id="edge13" class="edge">
<title>vehicle_speed_violations_hourly:w&#45;&gt;tenants:e</title>
<path fill="none" stroke="black" stroke-dasharray="5,2" d="M144.54,-126.79C66.98,-148.76 215.63,-365 112.5,-365"/>
<polygon fill="black" stroke="black" points="151.06,-125.98 159.44,-128.57 155.03,-125.49 159,-125 159,-125 159,-125 155.03,-125.49 158.56,-121.43 151.06,-125.98 151.06,-125.98"/>
<ellipse fill="none" stroke="black" cx="147.89" cy="-126.38" rx="3.2" ry="3.2"/>
</g>
<!-- vehicles -->
<g id="node12" class="node">
<title>vehicles</title>
<g id="a_node12"><a xlink:href="../../tables/vehicles.html" xlink:title="vehicles" target="_top">
<polygon fill="#ffffff" stroke="transparent" points="246,-37 246,-95 352,-95 352,-37 246,-37"/>
<polygon fill="#f5f5f5" stroke="transparent" points="246,-73 246,-95 352,-95 352,-73 246,-73"/>
<polygon fill="none" stroke="black" points="246,-73 246,-95 352,-95 352,-73 246,-73"/>
<text text-anchor="start" x="251" y="-82.2" font-family="Helvetica,sans-Serif" font-weight="bold" font-size="11.00">vehicles</text>
<text text-anchor="start" x="310" y="-81.2" font-family="Helvetica,sans-Serif" font-size="11.00">[table]</text>
<polygon fill="none" stroke="black" points="246,-55 246,-73 352,-73 352,-55 246,-55"/>
<text text-anchor="start" x="249" y="-61.2" font-family="Helvetica,sans-Serif" font-size="11.00">...</text>
<polygon fill="#ffffff" stroke="transparent" points="246,-37 246,-55 352,-55 352,-37 246,-37"/>
<polygon fill="none" stroke="black" points="246,-37 246,-55 352,-55 352,-37 246,-37"/>
<polygon fill="#ffffff" stroke="transparent" points="247,-38 247,-54 290,-54 290,-38 247,-38"/>
<text text-anchor="start" x="249" y="-43.2" font-family="Helvetica,sans-Serif" font-size="11.00">&lt; 1</text>
<polygon fill="#ffffff" stroke="transparent" points="290,-38 290,-54 321,-54 321,-38 290,-38"/>
<text text-anchor="start" x="301.5" y="-43.2" font-family="Helvetica,sans-Serif" font-size="11.00"> &#160;</text>
<polygon fill="#ffffff" stroke="transparent" points="321,-38 321,-54 351,-54 351,-38 321,-38"/>
<text text-anchor="start" x="341" y="-43.2" font-family="Helvetica,sans-Serif" font-size="11.00"> &#160;</text>
<polygon fill="black" stroke="black" points="290,-38 290,-54 290,-54 290,-38 290,-38"/>
<polygon fill="black" stroke="black" points="321,-38 321,-54 321,-54 321,-38 321,-38"/>
</a>
</g>
</g>
<!-- vehicles&#45;&gt;tenants -->
<g id="edge14" class="edge">
<title>vehicles:w&#45;&gt;tenants:e</title>
<path fill="none" stroke="black" stroke-dasharray="5,2" d="M230.51,-64.26C194.97,-65.72 176.3,-73.96 152,-106 116.81,-152.39 170.72,-365 112.5,-365"/>
<polygon fill="black" stroke="black" points="237,-64.14 245.06,-67.6 241,-64.07 245,-64 245,-64 245,-64 241,-64.07 244.94,-60.4 237,-64.14 237,-64.14"/>
<ellipse fill="none" stroke="black" cx="233.8" cy="-64.2" rx="3.2" ry="3.2"/>
</g>
</g>
</svg>
