<?xml version="1.0" encoding="UTF-8" standalone="no"?>
<!DOCTYPE svg PUBLIC "-//W3C//DTD SVG 1.1//EN"
 "http://www.w3.org/Graphics/SVG/1.1/DTD/svg11.dtd">
<!-- Generated by graphviz version 2.43.0 (0)
 -->
<!-- Title: oneDegreeRelationshipsDiagramImplied Pages: 1 -->
<svg width="688pt" height="269pt"
 viewBox="0.00 0.00 688.00 269.00" xmlns="http://www.w3.org/2000/svg" xmlns:xlink="http://www.w3.org/1999/xlink">
<g id="graph0" class="graph" transform="scale(1 1) rotate(0) translate(4 265)">
<title>oneDegreeRelationshipsDiagramImplied</title>
<polygon fill="#ffffff" stroke="transparent" points="-4,4 -4,-265 684,-265 684,4 -4,4"/>
<text text-anchor="middle" x="79.5" y="-7.2" font-family="Helvetica,sans-Serif" font-size="11.00">Generated by SchemaSpy</text>
<!-- turnaround_alerts -->
<g id="node1" class="node">
<title>turnaround_alerts</title>
<g id="a_node1"><a xlink:href="../../tables/turnaround_alerts.html" xlink:title="turnaround_alerts" target="_top">
<polygon fill="#ffffff" stroke="transparent" points="407,-37 407,-257 672,-257 672,-37 407,-37"/>
<polygon fill="#f5f5f5" stroke="transparent" points="409.5,-233 409.5,-255 670.5,-255 670.5,-233 409.5,-233"/>
<polygon fill="none" stroke="black" points="409.5,-233 409.5,-255 670.5,-255 670.5,-233 409.5,-233"/>
<text text-anchor="start" x="414.5" y="-242.2" font-family="Helvetica,sans-Serif" font-weight="bold" font-size="11.00">turnaround_alerts</text>
<text text-anchor="start" x="628.5" y="-241.2" font-family="Helvetica,sans-Serif" font-size="11.00">[table]</text>
<polygon fill="none" stroke="black" points="409.5,-211 409.5,-233 561.5,-233 561.5,-211 409.5,-211"/>
<image xlink:href="../../images/primaryKeys.png" width="11px" height="12px" preserveAspectRatio="xMinYMin meet" x="414.5" y="-228"/>
<text text-anchor="start" x="429.5" y="-219.2" font-family="Helvetica,sans-Serif" font-size="11.00">id</text>
<polygon fill="none" stroke="black" points="561.5,-211 561.5,-233 670.5,-233 670.5,-211 561.5,-211"/>
<text text-anchor="start" x="564.5" y="-219.2" font-family="Helvetica,sans-Serif" font-size="11.00">uuid[2147483647]</text>
<polygon fill="none" stroke="black" points="409.5,-189 409.5,-211 561.5,-211 561.5,-189 409.5,-189"/>
<image xlink:href="../../images/foreignKeys.png" width="11px" height="12px" preserveAspectRatio="xMinYMin meet" x="414.5" y="-206"/>
<text text-anchor="start" x="429.5" y="-197.2" font-family="Helvetica,sans-Serif" font-size="11.00">tenant_code</text>
<polygon fill="none" stroke="black" points="561.5,-189 561.5,-211 670.5,-211 670.5,-189 561.5,-189"/>
<text text-anchor="start" x="564.5" y="-197.2" font-family="Helvetica,sans-Serif" font-size="11.00">varchar[4]</text>
<polygon fill="#ffffff" stroke="transparent" points="409.5,-167 409.5,-189 561.5,-189 561.5,-167 409.5,-167"/>
<polygon fill="none" stroke="black" points="409.5,-167 409.5,-189 561.5,-189 561.5,-167 409.5,-167"/>
<image xlink:href="../../images/foreignKeys.png" width="11px" height="12px" preserveAspectRatio="xMinYMin meet" x="414.5" y="-184"/>
<text text-anchor="start" x="429.5" y="-175.2" font-family="Helvetica,sans-Serif" font-size="11.00">session_id</text>
<polygon fill="none" stroke="black" points="561.5,-167 561.5,-189 670.5,-189 670.5,-167 561.5,-167"/>
<text text-anchor="start" x="564.5" y="-175.2" font-family="Helvetica,sans-Serif" font-size="11.00">uuid[2147483647]</text>
<polygon fill="none" stroke="black" points="409.5,-145 409.5,-167 561.5,-167 561.5,-145 409.5,-145"/>
<text text-anchor="start" x="429.5" y="-153.2" font-family="Helvetica,sans-Serif" font-size="11.00">severity</text>
<polygon fill="none" stroke="black" points="561.5,-145 561.5,-167 670.5,-167 670.5,-145 561.5,-145"/>
<text text-anchor="start" x="564.5" y="-153.2" font-family="Helvetica,sans-Serif" font-size="11.00">varchar[20]</text>
<polygon fill="none" stroke="black" points="409.5,-123 409.5,-145 561.5,-145 561.5,-123 409.5,-123"/>
<text text-anchor="start" x="429.5" y="-131.2" font-family="Helvetica,sans-Serif" font-size="11.00">type</text>
<polygon fill="none" stroke="black" points="561.5,-123 561.5,-145 670.5,-145 670.5,-123 561.5,-123"/>
<text text-anchor="start" x="564.5" y="-131.2" font-family="Helvetica,sans-Serif" font-size="11.00">varchar[50]</text>
<polygon fill="none" stroke="black" points="409.5,-101 409.5,-123 561.5,-123 561.5,-101 409.5,-101"/>
<text text-anchor="start" x="429.5" y="-109.2" font-family="Helvetica,sans-Serif" font-size="11.00">message</text>
<polygon fill="none" stroke="black" points="561.5,-101 561.5,-123 670.5,-123 670.5,-101 561.5,-101"/>
<text text-anchor="start" x="564.5" y="-109.2" font-family="Helvetica,sans-Serif" font-size="11.00">text[2147483647]</text>
<polygon fill="none" stroke="black" points="409.5,-79 409.5,-101 561.5,-101 561.5,-79 409.5,-79"/>
<text text-anchor="start" x="429.5" y="-87.2" font-family="Helvetica,sans-Serif" font-size="11.00">timestamp</text>
<polygon fill="none" stroke="black" points="561.5,-79 561.5,-101 670.5,-101 670.5,-79 561.5,-79"/>
<text text-anchor="start" x="564.5" y="-87.2" font-family="Helvetica,sans-Serif" font-size="11.00">timestamptz[35,6]</text>
<polygon fill="none" stroke="black" points="409.5,-57 409.5,-79 561.5,-79 561.5,-57 409.5,-57"/>
<text text-anchor="start" x="429.5" y="-65.2" font-family="Helvetica,sans-Serif" font-size="11.00">is_active</text>
<polygon fill="none" stroke="black" points="561.5,-57 561.5,-79 670.5,-79 670.5,-57 561.5,-57"/>
<text text-anchor="start" x="564.5" y="-65.2" font-family="Helvetica,sans-Serif" font-size="11.00">bool[1]</text>
<polygon fill="#ffffff" stroke="transparent" points="409.5,-39 409.5,-57 670.5,-57 670.5,-39 409.5,-39"/>
<polygon fill="none" stroke="black" points="409.5,-39 409.5,-57 670.5,-57 670.5,-39 409.5,-39"/>
<polygon fill="#ffffff" stroke="transparent" points="410.5,-40 410.5,-56 501.5,-56 501.5,-40 410.5,-40"/>
<text text-anchor="start" x="412.5" y="-45.2" font-family="Helvetica,sans-Serif" font-size="11.00">&lt; 2</text>
<polygon fill="#ffffff" stroke="transparent" points="501.5,-40 501.5,-56 579.5,-56 579.5,-40 501.5,-40"/>
<text text-anchor="start" x="536.5" y="-45.2" font-family="Helvetica,sans-Serif" font-size="11.00"> &#160;</text>
<polygon fill="#ffffff" stroke="transparent" points="579.5,-40 579.5,-56 669.5,-56 669.5,-40 579.5,-40"/>
<text text-anchor="start" x="647.5" y="-45.2" font-family="Helvetica,sans-Serif" font-size="11.00">0 &gt;</text>
<polygon fill="black" stroke="black" points="501.5,-40 501.5,-56 501.5,-56 501.5,-40 501.5,-40"/>
<polygon fill="black" stroke="black" points="579.5,-40 579.5,-56 579.5,-56 579.5,-40 579.5,-40"/>
<polygon fill="none" stroke="black" stroke-width="2" points="408,-38 408,-256 671,-256 671,-38 408,-38"/>
</a>
</g>
</g>
<!-- turnaround_sessions -->
<g id="node2" class="node">
<title>turnaround_sessions</title>
<g id="a_node2"><a xlink:href="../../tables/turnaround_sessions.html" xlink:title="turnaround_sessions" target="_top">
<polygon fill="#ffffff" stroke="transparent" points="160,-70 160,-194 358,-194 358,-70 160,-70"/>
<polygon fill="#f5f5f5" stroke="transparent" points="160,-172 160,-194 358,-194 358,-172 160,-172"/>
<polygon fill="none" stroke="black" points="160,-172 160,-194 358,-194 358,-172 160,-172"/>
<text text-anchor="start" x="165" y="-181.2" font-family="Helvetica,sans-Serif" font-weight="bold" font-size="11.00">turnaround_sessions</text>
<text text-anchor="start" x="316" y="-180.2" font-family="Helvetica,sans-Serif" font-size="11.00">[table]</text>
<polygon fill="none" stroke="black" points="160,-150 160,-172 358,-172 358,-150 160,-150"/>
<image xlink:href="../../images/primaryKeys.png" width="11px" height="12px" preserveAspectRatio="xMinYMin meet" x="165" y="-167"/>
<text text-anchor="start" x="193" y="-158.2" font-family="Helvetica,sans-Serif" font-size="11.00">id</text>
<polygon fill="#ffffff" stroke="transparent" points="160,-128 160,-150 358,-150 358,-128 160,-128"/>
<polygon fill="none" stroke="black" points="160,-128 160,-150 358,-150 358,-128 160,-128"/>
<image xlink:href="../../images/foreignKeys.png" width="11px" height="12px" preserveAspectRatio="xMinYMin meet" x="165" y="-145"/>
<text text-anchor="start" x="193" y="-136.2" font-family="Helvetica,sans-Serif" font-size="11.00">tenant_code</text>
<polygon fill="#ffffff" stroke="transparent" points="160,-106 160,-128 358,-128 358,-106 160,-106"/>
<polygon fill="none" stroke="black" points="160,-106 160,-128 358,-128 358,-106 160,-106"/>
<text text-anchor="start" x="193" y="-114.2" font-family="Helvetica,sans-Serif" font-size="11.00">status</text>
<polygon fill="none" stroke="black" points="160,-88 160,-106 358,-106 358,-88 160,-88"/>
<text text-anchor="start" x="163" y="-94.2" font-family="Helvetica,sans-Serif" font-size="11.00">...</text>
<polygon fill="#ffffff" stroke="transparent" points="160,-70 160,-88 358,-88 358,-70 160,-70"/>
<polygon fill="none" stroke="black" points="160,-70 160,-88 358,-88 358,-70 160,-70"/>
<polygon fill="#ffffff" stroke="transparent" points="161,-71 161,-87 231,-87 231,-71 161,-71"/>
<text text-anchor="start" x="163" y="-76.2" font-family="Helvetica,sans-Serif" font-size="11.00">&lt; 1</text>
<polygon fill="#ffffff" stroke="transparent" points="231,-71 231,-87 288,-87 288,-71 231,-71"/>
<text text-anchor="start" x="255.5" y="-76.2" font-family="Helvetica,sans-Serif" font-size="11.00"> &#160;</text>
<polygon fill="#ffffff" stroke="transparent" points="288,-71 288,-87 357,-87 357,-71 288,-71"/>
<text text-anchor="start" x="335" y="-76.2" font-family="Helvetica,sans-Serif" font-size="11.00">2 &gt;</text>
<polygon fill="black" stroke="black" points="231,-71 231,-87 231,-87 231,-71 231,-71"/>
<polygon fill="black" stroke="black" points="288,-71 288,-87 288,-87 288,-71 288,-71"/>
</a>
</g>
</g>
<!-- turnaround_alerts&#45;&gt;turnaround_sessions -->
<g id="edge1" class="edge">
<title>turnaround_alerts:w&#45;&gt;turnaround_sessions:e</title>
<path fill="none" stroke="black" d="M394.22,-175.34C382.48,-170.56 376.45,-161 359,-161"/>
<polygon fill="black" stroke="black" points="400.63,-176.54 407.84,-181.54 404.57,-177.27 408.5,-178 408.5,-178 408.5,-178 404.57,-177.27 409.16,-174.46 400.63,-176.54 400.63,-176.54"/>
<ellipse fill="none" stroke="black" cx="397.49" cy="-175.95" rx="3.2" ry="3.2"/>
</g>
<!-- tenants -->
<g id="node3" class="node">
<title>tenants</title>
<g id="a_node3"><a xlink:href="../../tables/tenants.html" xlink:title="tenants" target="_top">
<polygon fill="#ffffff" stroke="transparent" points="8,-131 8,-211 111,-211 111,-131 8,-131"/>
<polygon fill="#f5f5f5" stroke="transparent" points="8.5,-189 8.5,-211 111.5,-211 111.5,-189 8.5,-189"/>
<polygon fill="none" stroke="black" points="8.5,-189 8.5,-211 111.5,-211 111.5,-189 8.5,-189"/>
<text text-anchor="start" x="13.5" y="-198.2" font-family="Helvetica,sans-Serif" font-weight="bold" font-size="11.00">tenants</text>
<text text-anchor="start" x="69.5" y="-197.2" font-family="Helvetica,sans-Serif" font-size="11.00">[table]</text>
<polygon fill="none" stroke="black" points="8.5,-167 8.5,-189 111.5,-189 111.5,-167 8.5,-167"/>
<image xlink:href="../../images/primaryKeys.png" width="11px" height="12px" preserveAspectRatio="xMinYMin meet" x="13.5" y="-184"/>
<text text-anchor="start" x="31.5" y="-175.2" font-family="Helvetica,sans-Serif" font-size="11.00">code</text>
<polygon fill="none" stroke="black" points="8.5,-149 8.5,-167 111.5,-167 111.5,-149 8.5,-149"/>
<text text-anchor="start" x="11.5" y="-155.2" font-family="Helvetica,sans-Serif" font-size="11.00">...</text>
<polygon fill="#ffffff" stroke="transparent" points="8.5,-131 8.5,-149 111.5,-149 111.5,-131 8.5,-131"/>
<polygon fill="none" stroke="black" points="8.5,-131 8.5,-149 111.5,-149 111.5,-131 8.5,-131"/>
<polygon fill="#ffffff" stroke="transparent" points="9.5,-132 9.5,-148 37.5,-148 37.5,-132 9.5,-132"/>
<text text-anchor="start" x="11.5" y="-137.2" font-family="Helvetica,sans-Serif" font-size="11.00"> &#160;</text>
<polygon fill="#ffffff" stroke="transparent" points="37.5,-132 37.5,-148 64.5,-148 64.5,-132 37.5,-132"/>
<text text-anchor="start" x="47" y="-137.2" font-family="Helvetica,sans-Serif" font-size="11.00"> &#160;</text>
<polygon fill="#ffffff" stroke="transparent" points="64.5,-132 64.5,-148 110.5,-148 110.5,-132 64.5,-132"/>
<text text-anchor="start" x="81.5" y="-137.2" font-family="Helvetica,sans-Serif" font-size="11.00">11 &gt;</text>
<polygon fill="black" stroke="black" points="37.5,-132 37.5,-148 37.5,-148 37.5,-132 37.5,-132"/>
<polygon fill="black" stroke="black" points="64.5,-132 64.5,-148 64.5,-148 64.5,-132 64.5,-132"/>
</a>
</g>
</g>
<!-- turnaround_alerts&#45;&gt;tenants -->
<g id="edge2" class="edge">
<title>turnaround_alerts:w&#45;&gt;tenants:e</title>
<path fill="none" stroke="black" stroke-dasharray="5,2" d="M394.04,-200.94C385.26,-202.16 379.05,-204.23 366,-205 271.05,-210.57 242.87,-233.09 152,-205 131.68,-198.72 133.76,-178 112.5,-178"/>
<polygon fill="black" stroke="black" points="400.52,-200.52 408.73,-203.59 404.51,-200.26 408.5,-200 408.5,-200 408.5,-200 404.51,-200.26 408.27,-196.41 400.52,-200.52 400.52,-200.52"/>
<ellipse fill="none" stroke="black" cx="397.32" cy="-200.72" rx="3.2" ry="3.2"/>
</g>
<!-- turnaround_sessions&#45;&gt;tenants -->
<g id="edge3" class="edge">
<title>turnaround_sessions:w&#45;&gt;tenants:e</title>
<path fill="none" stroke="black" stroke-dasharray="5,2" d="M145.17,-144.1C133.63,-154.67 133.36,-178 112.5,-178"/>
<polygon fill="black" stroke="black" points="151.49,-141.77 160.24,-142.38 155.25,-140.38 159,-139 159,-139 159,-139 155.25,-140.38 157.76,-135.62 151.49,-141.77 151.49,-141.77"/>
<ellipse fill="none" stroke="black" cx="148.49" cy="-142.87" rx="3.2" ry="3.2"/>
</g>
</g>
</svg>
