<?xml version="1.0" encoding="UTF-8" standalone="no"?>
<!DOCTYPE svg PUBLIC "-//W3C//DTD SVG 1.1//EN"
 "http://www.w3.org/Graphics/SVG/1.1/DTD/svg11.dtd">
<!-- Generated by graphviz version 2.43.0 (0)
 -->
<!-- Title: twoDegreesRelationshipsDiagramImplied Pages: 1 -->
<svg width="681pt" height="911pt"
 viewBox="0.00 0.00 681.00 910.92" xmlns="http://www.w3.org/2000/svg" xmlns:xlink="http://www.w3.org/1999/xlink">
<g id="graph0" class="graph" transform="scale(1 1) rotate(0) translate(4 906.92)">
<title>twoDegreesRelationshipsDiagramImplied</title>
<polygon fill="#ffffff" stroke="transparent" points="-4,4 -4,-906.92 677,-906.92 677,4 -4,4"/>
<text text-anchor="middle" x="79.5" y="-7.2" font-family="Helvetica,sans-Serif" font-size="11.00">Generated by SchemaSpy</text>
<!-- audit_logs -->
<g id="node1" class="node">
<title>audit_logs</title>
<g id="a_node1"><a xlink:href="../../tables/audit_logs.html" xlink:title="audit_logs" target="_top">
<polygon fill="#ffffff" stroke="transparent" points="515.5,-819 515.5,-877 636.5,-877 636.5,-819 515.5,-819"/>
<polygon fill="#f5f5f5" stroke="transparent" points="516,-855 516,-877 637,-877 637,-855 516,-855"/>
<polygon fill="none" stroke="black" points="516,-855 516,-877 637,-877 637,-855 516,-855"/>
<text text-anchor="start" x="521" y="-864.2" font-family="Helvetica,sans-Serif" font-weight="bold" font-size="11.00">audit_logs</text>
<text text-anchor="start" x="595" y="-863.2" font-family="Helvetica,sans-Serif" font-size="11.00">[table]</text>
<polygon fill="none" stroke="black" points="516,-837 516,-855 637,-855 637,-837 516,-837"/>
<text text-anchor="start" x="519" y="-843.2" font-family="Helvetica,sans-Serif" font-size="11.00">...</text>
<polygon fill="#ffffff" stroke="transparent" points="516,-819 516,-837 637,-837 637,-819 516,-819"/>
<polygon fill="none" stroke="black" points="516,-819 516,-837 637,-837 637,-819 516,-819"/>
<polygon fill="#ffffff" stroke="transparent" points="517,-820 517,-836 565,-836 565,-820 517,-820"/>
<text text-anchor="start" x="519" y="-825.2" font-family="Helvetica,sans-Serif" font-size="11.00">&lt; 2</text>
<polygon fill="#ffffff" stroke="transparent" points="565,-820 565,-836 601,-836 601,-820 565,-820"/>
<text text-anchor="start" x="579" y="-825.2" font-family="Helvetica,sans-Serif" font-size="11.00"> &#160;</text>
<polygon fill="#ffffff" stroke="transparent" points="601,-820 601,-836 636,-836 636,-820 601,-820"/>
<text text-anchor="start" x="626" y="-825.2" font-family="Helvetica,sans-Serif" font-size="11.00"> &#160;</text>
<polygon fill="black" stroke="black" points="565,-820 565,-836 565,-836 565,-820 565,-820"/>
<polygon fill="black" stroke="black" points="601,-820 601,-836 601,-836 601,-820 601,-820"/>
</a>
</g>
</g>
<!-- tenants -->
<g id="node2" class="node">
<title>tenants</title>
<g id="a_node2"><a xlink:href="../../tables/tenants.html" xlink:title="tenants" target="_top">
<polygon fill="#ffffff" stroke="transparent" points="8,-502 8,-582 111,-582 111,-502 8,-502"/>
<polygon fill="#f5f5f5" stroke="transparent" points="8.5,-560 8.5,-582 111.5,-582 111.5,-560 8.5,-560"/>
<polygon fill="none" stroke="black" points="8.5,-560 8.5,-582 111.5,-582 111.5,-560 8.5,-560"/>
<text text-anchor="start" x="13.5" y="-569.2" font-family="Helvetica,sans-Serif" font-weight="bold" font-size="11.00">tenants</text>
<text text-anchor="start" x="69.5" y="-568.2" font-family="Helvetica,sans-Serif" font-size="11.00">[table]</text>
<polygon fill="none" stroke="black" points="8.5,-538 8.5,-560 111.5,-560 111.5,-538 8.5,-538"/>
<image xlink:href="../../images/primaryKeys.png" width="11px" height="12px" preserveAspectRatio="xMinYMin meet" x="13.5" y="-555"/>
<text text-anchor="start" x="31.5" y="-546.2" font-family="Helvetica,sans-Serif" font-size="11.00">code</text>
<polygon fill="none" stroke="black" points="8.5,-520 8.5,-538 111.5,-538 111.5,-520 8.5,-520"/>
<text text-anchor="start" x="11.5" y="-526.2" font-family="Helvetica,sans-Serif" font-size="11.00">...</text>
<polygon fill="#ffffff" stroke="transparent" points="8.5,-502 8.5,-520 111.5,-520 111.5,-502 8.5,-502"/>
<polygon fill="none" stroke="black" points="8.5,-502 8.5,-520 111.5,-520 111.5,-502 8.5,-502"/>
<polygon fill="#ffffff" stroke="transparent" points="9.5,-503 9.5,-519 37.5,-519 37.5,-503 9.5,-503"/>
<text text-anchor="start" x="11.5" y="-508.2" font-family="Helvetica,sans-Serif" font-size="11.00"> &#160;</text>
<polygon fill="#ffffff" stroke="transparent" points="37.5,-503 37.5,-519 64.5,-519 64.5,-503 37.5,-503"/>
<text text-anchor="start" x="47" y="-508.2" font-family="Helvetica,sans-Serif" font-size="11.00"> &#160;</text>
<polygon fill="#ffffff" stroke="transparent" points="64.5,-503 64.5,-519 110.5,-519 110.5,-503 64.5,-503"/>
<text text-anchor="start" x="81.5" y="-508.2" font-family="Helvetica,sans-Serif" font-size="11.00">11 &gt;</text>
<polygon fill="black" stroke="black" points="37.5,-503 37.5,-519 37.5,-519 37.5,-503 37.5,-503"/>
<polygon fill="black" stroke="black" points="64.5,-503 64.5,-519 64.5,-519 64.5,-503 64.5,-503"/>
</a>
</g>
</g>
<!-- audit_logs&#45;&gt;tenants -->
<g id="edge1" class="edge">
<title>audit_logs:w&#45;&gt;tenants:e</title>
<path fill="none" stroke="black" d="M500.49,-846.97C480.6,-849.84 471.72,-858.24 446,-861 316.08,-874.96 250.03,-947.4 152,-861 99.57,-814.79 182.39,-549 112.5,-549"/>
<polygon fill="black" stroke="black" points="507.02,-846.53 515.24,-849.59 511.01,-846.27 515,-846 515,-846 515,-846 511.01,-846.27 514.76,-842.41 507.02,-846.53 507.02,-846.53"/>
<ellipse fill="none" stroke="black" cx="503.83" cy="-846.75" rx="3.2" ry="3.2"/>
</g>
<!-- users -->
<g id="node3" class="node">
<title>users</title>
<g id="a_node3"><a xlink:href="../../tables/users.html" xlink:title="users" target="_top">
<polygon fill="#ffffff" stroke="transparent" points="256,-792 256,-850 342,-850 342,-792 256,-792"/>
<polygon fill="#f5f5f5" stroke="transparent" points="256,-828 256,-850 342,-850 342,-828 256,-828"/>
<polygon fill="none" stroke="black" points="256,-828 256,-850 342,-850 342,-828 256,-828"/>
<text text-anchor="start" x="261" y="-837.2" font-family="Helvetica,sans-Serif" font-weight="bold" font-size="11.00">users</text>
<text text-anchor="start" x="300" y="-836.2" font-family="Helvetica,sans-Serif" font-size="11.00">[table]</text>
<polygon fill="none" stroke="black" points="256,-810 256,-828 342,-828 342,-810 256,-810"/>
<text text-anchor="start" x="259" y="-816.2" font-family="Helvetica,sans-Serif" font-size="11.00">...</text>
<polygon fill="#ffffff" stroke="transparent" points="256,-792 256,-810 342,-810 342,-792 256,-792"/>
<polygon fill="none" stroke="black" points="256,-792 256,-810 342,-810 342,-792 256,-792"/>
<polygon fill="#ffffff" stroke="transparent" points="257,-793 257,-809 289,-809 289,-793 257,-793"/>
<text text-anchor="start" x="259" y="-798.2" font-family="Helvetica,sans-Serif" font-size="11.00">&lt; 1</text>
<polygon fill="#ffffff" stroke="transparent" points="289,-793 289,-809 309,-809 309,-793 289,-793"/>
<text text-anchor="start" x="295" y="-798.2" font-family="Helvetica,sans-Serif" font-size="11.00"> &#160;</text>
<polygon fill="#ffffff" stroke="transparent" points="309,-793 309,-809 341,-809 341,-793 309,-793"/>
<text text-anchor="start" x="319" y="-798.2" font-family="Helvetica,sans-Serif" font-size="11.00">1 &gt;</text>
<polygon fill="black" stroke="black" points="289,-793 289,-809 289,-809 289,-793 289,-793"/>
<polygon fill="black" stroke="black" points="309,-793 309,-809 309,-809 309,-793 309,-793"/>
</a>
</g>
</g>
<!-- audit_logs&#45;&gt;users -->
<g id="edge2" class="edge">
<title>audit_logs:w&#45;&gt;users:e</title>
<path fill="none" stroke="black" d="M500.34,-845.66C435.06,-842.53 415.24,-819 343,-819"/>
<polygon fill="black" stroke="black" points="507,-845.81 514.92,-849.6 511,-845.91 515,-846 515,-846 515,-846 511,-845.91 515.08,-842.4 507,-845.81 507,-845.81"/>
<ellipse fill="none" stroke="black" cx="503.8" cy="-845.74" rx="3.2" ry="3.2"/>
</g>
<!-- users&#45;&gt;tenants -->
<g id="edge12" class="edge">
<title>users:w&#45;&gt;tenants:e</title>
<path fill="none" stroke="black" d="M240.42,-818.97C201.39,-818.64 179.93,-815.37 152,-782 118.29,-741.73 165.02,-549 112.5,-549"/>
<polygon fill="black" stroke="black" points="247,-818.98 254.99,-822.6 251,-818.99 255,-819 255,-819 255,-819 251,-818.99 255.01,-815.4 247,-818.98 247,-818.98"/>
<ellipse fill="none" stroke="black" cx="243.8" cy="-818.97" rx="3.2" ry="3.2"/>
</g>
<!-- flights -->
<g id="node4" class="node">
<title>flights</title>
<g id="a_node4"><a xlink:href="../../tables/flights.html" xlink:title="flights" target="_top">
<polygon fill="#ffffff" stroke="transparent" points="252,-713 252,-771 346,-771 346,-713 252,-713"/>
<polygon fill="#f5f5f5" stroke="transparent" points="252,-749 252,-771 346,-771 346,-749 252,-749"/>
<polygon fill="none" stroke="black" points="252,-749 252,-771 346,-771 346,-749 252,-749"/>
<text text-anchor="start" x="257" y="-758.2" font-family="Helvetica,sans-Serif" font-weight="bold" font-size="11.00">flights</text>
<text text-anchor="start" x="304" y="-757.2" font-family="Helvetica,sans-Serif" font-size="11.00">[table]</text>
<polygon fill="none" stroke="black" points="252,-731 252,-749 346,-749 346,-731 252,-731"/>
<text text-anchor="start" x="255" y="-737.2" font-family="Helvetica,sans-Serif" font-size="11.00">...</text>
<polygon fill="#ffffff" stroke="transparent" points="252,-713 252,-731 346,-731 346,-713 252,-713"/>
<polygon fill="none" stroke="black" points="252,-713 252,-731 346,-731 346,-713 252,-713"/>
<polygon fill="#ffffff" stroke="transparent" points="253,-714 253,-730 292,-730 292,-714 253,-714"/>
<text text-anchor="start" x="255" y="-719.2" font-family="Helvetica,sans-Serif" font-size="11.00">&lt; 1</text>
<polygon fill="#ffffff" stroke="transparent" points="292,-714 292,-730 319,-730 319,-714 292,-714"/>
<text text-anchor="start" x="301.5" y="-719.2" font-family="Helvetica,sans-Serif" font-size="11.00"> &#160;</text>
<polygon fill="#ffffff" stroke="transparent" points="319,-714 319,-730 345,-730 345,-714 319,-714"/>
<text text-anchor="start" x="335" y="-719.2" font-family="Helvetica,sans-Serif" font-size="11.00"> &#160;</text>
<polygon fill="black" stroke="black" points="292,-714 292,-730 292,-730 292,-714 292,-714"/>
<polygon fill="black" stroke="black" points="319,-714 319,-730 319,-730 319,-714 319,-714"/>
</a>
</g>
</g>
<!-- flights&#45;&gt;tenants -->
<g id="edge3" class="edge">
<title>flights:w&#45;&gt;tenants:e</title>
<path fill="none" stroke="black" stroke-dasharray="5,2" d="M236.48,-739.89C199.39,-739.16 179.96,-734.12 152,-703 104.77,-650.45 183.16,-549 112.5,-549"/>
<polygon fill="black" stroke="black" points="243,-739.94 250.97,-743.6 247,-739.97 251,-740 251,-740 251,-740 247,-739.97 251.03,-736.4 243,-739.94 243,-739.94"/>
<ellipse fill="none" stroke="black" cx="239.8" cy="-739.91" rx="3.2" ry="3.2"/>
</g>
<!-- flights_hourly -->
<g id="node5" class="node">
<title>flights_hourly</title>
<g id="a_node5"><a xlink:href="../../tables/flights_hourly.html" xlink:title="flights_hourly" target="_top">
<polygon fill="#ffffff" stroke="transparent" points="226.5,-652 226.5,-692 371.5,-692 371.5,-652 226.5,-652"/>
<polygon fill="#f5f5f5" stroke="transparent" points="227,-670 227,-692 372,-692 372,-670 227,-670"/>
<polygon fill="none" stroke="black" points="227,-670 227,-692 372,-692 372,-670 227,-670"/>
<text text-anchor="start" x="232" y="-679.2" font-family="Helvetica,sans-Serif" font-weight="bold" font-size="11.00">flights_hourly</text>
<text text-anchor="start" x="332" y="-678.2" font-family="Helvetica,sans-Serif" font-size="11.00">[view]</text>
<polygon fill="none" stroke="black" points="227,-652 227,-670 372,-670 372,-652 227,-652"/>
<text text-anchor="start" x="230" y="-658.2" font-family="Helvetica,sans-Serif" font-size="11.00">...</text>
</a>
</g>
</g>
<!-- flights_hourly&#45;&gt;tenants -->
<g id="edge4" class="edge">
<title>flights_hourly:w&#45;&gt;tenants:e</title>
<path fill="none" stroke="black" stroke-dasharray="5,2" d="M211.4,-661.12C187.3,-661.36 173.72,-660.68 152,-642 117.95,-612.72 157.41,-549 112.5,-549"/>
<polygon fill="black" stroke="black" points="218,-661.07 226.03,-664.6 222,-661.03 226,-661 226,-661 226,-661 222,-661.03 225.97,-657.4 218,-661.07 218,-661.07"/>
<ellipse fill="none" stroke="black" cx="214.8" cy="-661.09" rx="3.2" ry="3.2"/>
</g>
<!-- sensor_alerts -->
<g id="node6" class="node">
<title>sensor_alerts</title>
<g id="a_node6"><a xlink:href="../../tables/sensor_alerts.html" xlink:title="sensor_alerts" target="_top">
<polygon fill="#ffffff" stroke="transparent" points="227,-573 227,-631 371,-631 371,-573 227,-573"/>
<polygon fill="#f5f5f5" stroke="transparent" points="227,-609 227,-631 371,-631 371,-609 227,-609"/>
<polygon fill="none" stroke="black" points="227,-609 227,-631 371,-631 371,-609 227,-609"/>
<text text-anchor="start" x="232" y="-618.2" font-family="Helvetica,sans-Serif" font-weight="bold" font-size="11.00">sensor_alerts</text>
<text text-anchor="start" x="329" y="-617.2" font-family="Helvetica,sans-Serif" font-size="11.00">[table]</text>
<polygon fill="none" stroke="black" points="227,-591 227,-609 371,-609 371,-591 227,-591"/>
<text text-anchor="start" x="230" y="-597.2" font-family="Helvetica,sans-Serif" font-size="11.00">...</text>
<polygon fill="#ffffff" stroke="transparent" points="227,-573 227,-591 371,-591 371,-573 227,-573"/>
<polygon fill="none" stroke="black" points="227,-573 227,-591 371,-591 371,-573 227,-573"/>
<polygon fill="#ffffff" stroke="transparent" points="228,-574 228,-590 284,-590 284,-574 228,-574"/>
<text text-anchor="start" x="230" y="-579.2" font-family="Helvetica,sans-Serif" font-size="11.00">&lt; 1</text>
<polygon fill="#ffffff" stroke="transparent" points="284,-574 284,-590 327,-590 327,-574 284,-574"/>
<text text-anchor="start" x="301.5" y="-579.2" font-family="Helvetica,sans-Serif" font-size="11.00"> &#160;</text>
<polygon fill="#ffffff" stroke="transparent" points="327,-574 327,-590 370,-590 370,-574 327,-574"/>
<text text-anchor="start" x="360" y="-579.2" font-family="Helvetica,sans-Serif" font-size="11.00"> &#160;</text>
<polygon fill="black" stroke="black" points="284,-574 284,-590 284,-590 284,-574 284,-574"/>
<polygon fill="black" stroke="black" points="327,-574 327,-590 327,-590 327,-574 327,-574"/>
</a>
</g>
</g>
<!-- sensor_alerts&#45;&gt;tenants -->
<g id="edge5" class="edge">
<title>sensor_alerts:w&#45;&gt;tenants:e</title>
<path fill="none" stroke="black" stroke-dasharray="5,2" d="M211.47,-598.69C169.66,-590.71 162.51,-549 112.5,-549"/>
<polygon fill="black" stroke="black" points="218.03,-599.28 225.68,-603.59 222.02,-599.64 226,-600 226,-600 226,-600 222.02,-599.64 226.32,-596.41 218.03,-599.28 218.03,-599.28"/>
<ellipse fill="none" stroke="black" cx="214.85" cy="-598.99" rx="3.2" ry="3.2"/>
</g>
<!-- turnaround_alerts -->
<g id="node7" class="node">
<title>turnaround_alerts</title>
<g id="a_node7"><a xlink:href="../../tables/turnaround_alerts.html" xlink:title="turnaround_alerts" target="_top">
<polygon fill="#ffffff" stroke="transparent" points="487,-509 487,-567 665,-567 665,-509 487,-509"/>
<polygon fill="#f5f5f5" stroke="transparent" points="487,-545 487,-567 665,-567 665,-545 487,-545"/>
<polygon fill="none" stroke="black" points="487,-545 487,-567 665,-567 665,-545 487,-545"/>
<text text-anchor="start" x="492" y="-554.2" font-family="Helvetica,sans-Serif" font-weight="bold" font-size="11.00">turnaround_alerts</text>
<text text-anchor="start" x="623" y="-553.2" font-family="Helvetica,sans-Serif" font-size="11.00">[table]</text>
<polygon fill="none" stroke="black" points="487,-527 487,-545 665,-545 665,-527 487,-527"/>
<text text-anchor="start" x="490" y="-533.2" font-family="Helvetica,sans-Serif" font-size="11.00">...</text>
<polygon fill="#ffffff" stroke="transparent" points="487,-509 487,-527 665,-527 665,-509 487,-509"/>
<polygon fill="none" stroke="black" points="487,-509 487,-527 665,-527 665,-509 487,-509"/>
<polygon fill="#ffffff" stroke="transparent" points="488,-510 488,-526 555,-526 555,-510 488,-510"/>
<text text-anchor="start" x="490" y="-515.2" font-family="Helvetica,sans-Serif" font-size="11.00">&lt; 2</text>
<polygon fill="#ffffff" stroke="transparent" points="555,-510 555,-526 610,-526 610,-510 555,-510"/>
<text text-anchor="start" x="578.5" y="-515.2" font-family="Helvetica,sans-Serif" font-size="11.00"> &#160;</text>
<polygon fill="#ffffff" stroke="transparent" points="610,-510 610,-526 664,-526 664,-510 610,-510"/>
<text text-anchor="start" x="654" y="-515.2" font-family="Helvetica,sans-Serif" font-size="11.00"> &#160;</text>
<polygon fill="black" stroke="black" points="555,-510 555,-526 555,-526 555,-510 555,-510"/>
<polygon fill="black" stroke="black" points="610,-510 610,-526 610,-526 610,-510 610,-510"/>
</a>
</g>
</g>
<!-- turnaround_alerts&#45;&gt;tenants -->
<g id="edge7" class="edge">
<title>turnaround_alerts:w&#45;&gt;tenants:e</title>
<path fill="none" stroke="black" stroke-dasharray="5,2" d="M471.25,-536.04C317.28,-536.78 273.57,-549 112.5,-549"/>
<polygon fill="black" stroke="black" points="478,-536.02 486.01,-539.6 482,-536.01 486,-536 486,-536 486,-536 482,-536.01 485.99,-532.4 478,-536.02 478,-536.02"/>
<ellipse fill="none" stroke="black" cx="474.8" cy="-536.03" rx="3.2" ry="3.2"/>
</g>
<!-- turnaround_sessions -->
<g id="node8" class="node">
<title>turnaround_sessions</title>
<g id="a_node8"><a xlink:href="../../tables/turnaround_sessions.html" xlink:title="turnaround_sessions" target="_top">
<polygon fill="#ffffff" stroke="transparent" points="200,-467 200,-525 398,-525 398,-467 200,-467"/>
<polygon fill="#f5f5f5" stroke="transparent" points="200,-503 200,-525 398,-525 398,-503 200,-503"/>
<polygon fill="none" stroke="black" points="200,-503 200,-525 398,-525 398,-503 200,-503"/>
<text text-anchor="start" x="205" y="-512.2" font-family="Helvetica,sans-Serif" font-weight="bold" font-size="11.00">turnaround_sessions</text>
<text text-anchor="start" x="356" y="-511.2" font-family="Helvetica,sans-Serif" font-size="11.00">[table]</text>
<polygon fill="none" stroke="black" points="200,-485 200,-503 398,-503 398,-485 200,-485"/>
<text text-anchor="start" x="203" y="-491.2" font-family="Helvetica,sans-Serif" font-size="11.00">...</text>
<polygon fill="#ffffff" stroke="transparent" points="200,-467 200,-485 398,-485 398,-467 200,-467"/>
<polygon fill="none" stroke="black" points="200,-467 200,-485 398,-485 398,-467 200,-467"/>
<polygon fill="#ffffff" stroke="transparent" points="201,-468 201,-484 271,-484 271,-468 201,-468"/>
<text text-anchor="start" x="203" y="-473.2" font-family="Helvetica,sans-Serif" font-size="11.00">&lt; 1</text>
<polygon fill="#ffffff" stroke="transparent" points="271,-468 271,-484 328,-484 328,-468 271,-468"/>
<text text-anchor="start" x="295.5" y="-473.2" font-family="Helvetica,sans-Serif" font-size="11.00"> &#160;</text>
<polygon fill="#ffffff" stroke="transparent" points="328,-468 328,-484 397,-484 397,-468 328,-468"/>
<text text-anchor="start" x="375" y="-473.2" font-family="Helvetica,sans-Serif" font-size="11.00">2 &gt;</text>
<polygon fill="black" stroke="black" points="271,-468 271,-484 271,-484 271,-468 271,-468"/>
<polygon fill="black" stroke="black" points="328,-468 328,-484 328,-484 328,-468 328,-468"/>
</a>
</g>
</g>
<!-- turnaround_alerts&#45;&gt;turnaround_sessions -->
<g id="edge6" class="edge">
<title>turnaround_alerts:w&#45;&gt;turnaround_sessions:e</title>
<path fill="none" stroke="black" d="M471.7,-534.2C442.13,-526.16 436.57,-494 399,-494"/>
<polygon fill="black" stroke="black" points="478.06,-535 485.55,-539.57 482.03,-535.5 486,-536 486,-536 486,-536 482.03,-535.5 486.45,-532.43 478.06,-535 478.06,-535"/>
<ellipse fill="none" stroke="black" cx="474.89" cy="-534.6" rx="3.2" ry="3.2"/>
</g>
<!-- turnaround_sessions&#45;&gt;tenants -->
<g id="edge9" class="edge">
<title>turnaround_sessions:w&#45;&gt;tenants:e</title>
<path fill="none" stroke="black" stroke-dasharray="5,2" d="M184.48,-496.22C153.82,-506.51 152.54,-549 112.5,-549"/>
<polygon fill="black" stroke="black" points="191.09,-495.21 199.55,-497.56 195.05,-494.61 199,-494 199,-494 199,-494 195.05,-494.61 198.45,-490.44 191.09,-495.21 191.09,-495.21"/>
<ellipse fill="none" stroke="black" cx="187.93" cy="-495.7" rx="3.2" ry="3.2"/>
</g>
<!-- turnaround_events -->
<g id="node9" class="node">
<title>turnaround_events</title>
<g id="a_node9"><a xlink:href="../../tables/turnaround_events.html" xlink:title="turnaround_events" target="_top">
<polygon fill="#ffffff" stroke="transparent" points="163,-177 163,-419 435,-419 435,-177 163,-177"/>
<polygon fill="#f5f5f5" stroke="transparent" points="165,-395 165,-417 433,-417 433,-395 165,-395"/>
<polygon fill="none" stroke="black" points="165,-395 165,-417 433,-417 433,-395 165,-395"/>
<text text-anchor="start" x="170" y="-404.2" font-family="Helvetica,sans-Serif" font-weight="bold" font-size="11.00">turnaround_events</text>
<text text-anchor="start" x="391" y="-403.2" font-family="Helvetica,sans-Serif" font-size="11.00">[table]</text>
<polygon fill="none" stroke="black" points="165,-373 165,-395 324,-395 324,-373 165,-373"/>
<image xlink:href="../../images/primaryKeys.png" width="11px" height="12px" preserveAspectRatio="xMinYMin meet" x="170" y="-390"/>
<text text-anchor="start" x="185" y="-381.2" font-family="Helvetica,sans-Serif" font-size="11.00">event_unique_id</text>
<polygon fill="none" stroke="black" points="324,-373 324,-395 433,-395 433,-373 324,-373"/>
<text text-anchor="start" x="327" y="-381.2" font-family="Helvetica,sans-Serif" font-size="11.00">varchar[255]</text>
<polygon fill="#ffffff" stroke="transparent" points="165,-351 165,-373 324,-373 324,-351 165,-351"/>
<polygon fill="none" stroke="black" points="165,-351 165,-373 324,-373 324,-351 165,-351"/>
<image xlink:href="../../images/foreignKeys.png" width="11px" height="12px" preserveAspectRatio="xMinYMin meet" x="170" y="-368"/>
<text text-anchor="start" x="185" y="-359.2" font-family="Helvetica,sans-Serif" font-size="11.00">tenant_code</text>
<polygon fill="none" stroke="black" points="324,-351 324,-373 433,-373 433,-351 324,-351"/>
<text text-anchor="start" x="327" y="-359.2" font-family="Helvetica,sans-Serif" font-size="11.00">varchar[4]</text>
<polygon fill="none" stroke="black" points="165,-329 165,-351 324,-351 324,-329 165,-329"/>
<text text-anchor="start" x="185" y="-337.2" font-family="Helvetica,sans-Serif" font-size="11.00">camera_id</text>
<polygon fill="none" stroke="black" points="324,-329 324,-351 433,-351 433,-329 324,-329"/>
<text text-anchor="start" x="327" y="-337.2" font-family="Helvetica,sans-Serif" font-size="11.00">varchar[255]</text>
<polygon fill="none" stroke="black" points="165,-307 165,-329 324,-329 324,-307 165,-307"/>
<text text-anchor="start" x="185" y="-315.2" font-family="Helvetica,sans-Serif" font-size="11.00">camera_name</text>
<polygon fill="none" stroke="black" points="324,-307 324,-329 433,-329 433,-307 324,-307"/>
<text text-anchor="start" x="327" y="-315.2" font-family="Helvetica,sans-Serif" font-size="11.00">varchar[255]</text>
<polygon fill="none" stroke="black" points="165,-285 165,-307 324,-307 324,-285 165,-285"/>
<text text-anchor="start" x="185" y="-293.2" font-family="Helvetica,sans-Serif" font-size="11.00">activity_type</text>
<polygon fill="none" stroke="black" points="324,-285 324,-307 433,-307 433,-285 324,-285"/>
<text text-anchor="start" x="327" y="-293.2" font-family="Helvetica,sans-Serif" font-size="11.00">varchar[255]</text>
<polygon fill="none" stroke="black" points="165,-263 165,-285 324,-285 324,-263 165,-263"/>
<text text-anchor="start" x="185" y="-271.2" font-family="Helvetica,sans-Serif" font-size="11.00">event_type</text>
<polygon fill="none" stroke="black" points="324,-263 324,-285 433,-285 433,-263 324,-263"/>
<text text-anchor="start" x="327" y="-271.2" font-family="Helvetica,sans-Serif" font-size="11.00">int4[10]</text>
<polygon fill="none" stroke="black" points="165,-241 165,-263 324,-263 324,-241 165,-241"/>
<image xlink:href="../../images/primaryKeys.png" width="11px" height="12px" preserveAspectRatio="xMinYMin meet" x="170" y="-258"/>
<text text-anchor="start" x="185" y="-249.2" font-family="Helvetica,sans-Serif" font-size="11.00">event_time_stamp</text>
<polygon fill="none" stroke="black" points="324,-241 324,-263 433,-263 433,-241 324,-241"/>
<text text-anchor="start" x="327" y="-249.2" font-family="Helvetica,sans-Serif" font-size="11.00">timestamptz[35,6]</text>
<polygon fill="#ffffff" stroke="transparent" points="165,-219 165,-241 324,-241 324,-219 165,-219"/>
<polygon fill="none" stroke="black" points="165,-219 165,-241 324,-241 324,-219 165,-219"/>
<text text-anchor="start" x="185" y="-227.2" font-family="Helvetica,sans-Serif" font-size="11.00">stand</text>
<polygon fill="none" stroke="black" points="324,-219 324,-241 433,-241 433,-219 324,-219"/>
<text text-anchor="start" x="327" y="-227.2" font-family="Helvetica,sans-Serif" font-size="11.00">varchar[255]</text>
<polygon fill="none" stroke="black" points="165,-197 165,-219 324,-219 324,-197 165,-197"/>
<text text-anchor="start" x="185" y="-205.2" font-family="Helvetica,sans-Serif" font-size="11.00">created_at</text>
<polygon fill="none" stroke="black" points="324,-197 324,-219 433,-219 433,-197 324,-197"/>
<text text-anchor="start" x="327" y="-205.2" font-family="Helvetica,sans-Serif" font-size="11.00">timestamptz[35,6]</text>
<polygon fill="#ffffff" stroke="transparent" points="165,-179 165,-197 433,-197 433,-179 165,-179"/>
<polygon fill="none" stroke="black" points="165,-179 165,-197 433,-197 433,-179 165,-179"/>
<polygon fill="#ffffff" stroke="transparent" points="166,-180 166,-196 259,-196 259,-180 166,-180"/>
<text text-anchor="start" x="168" y="-185.2" font-family="Helvetica,sans-Serif" font-size="11.00">&lt; 1</text>
<polygon fill="#ffffff" stroke="transparent" points="259,-180 259,-196 340,-196 340,-180 259,-180"/>
<text text-anchor="start" x="295.5" y="-185.2" font-family="Helvetica,sans-Serif" font-size="11.00"> &#160;</text>
<polygon fill="#ffffff" stroke="transparent" points="340,-180 340,-196 432,-196 432,-180 340,-180"/>
<text text-anchor="start" x="410" y="-185.2" font-family="Helvetica,sans-Serif" font-size="11.00">0 &gt;</text>
<polygon fill="black" stroke="black" points="259,-180 259,-196 259,-196 259,-180 259,-180"/>
<polygon fill="black" stroke="black" points="340,-180 340,-196 340,-196 340,-180 340,-180"/>
<polygon fill="none" stroke="black" stroke-width="2" points="164,-178 164,-418 434,-418 434,-178 164,-178"/>
</a>
</g>
</g>
<!-- turnaround_events&#45;&gt;tenants -->
<g id="edge8" class="edge">
<title>turnaround_events:w&#45;&gt;tenants:e</title>
<path fill="none" stroke="black" stroke-dasharray="5,2" d="M149.44,-364.36C92.94,-386.01 192.98,-549 112.5,-549"/>
<polygon fill="black" stroke="black" points="156.1,-363.28 164.58,-365.55 160.05,-362.64 164,-362 164,-362 164,-362 160.05,-362.64 163.42,-358.45 156.1,-363.28 156.1,-363.28"/>
<ellipse fill="none" stroke="black" cx="152.94" cy="-363.8" rx="3.2" ry="3.2"/>
</g>
<!-- turnaround_tasks -->
<g id="node10" class="node">
<title>turnaround_tasks</title>
<g id="a_node10"><a xlink:href="../../tables/turnaround_tasks.html" xlink:title="turnaround_tasks" target="_top">
<polygon fill="#ffffff" stroke="transparent" points="488.5,-423 488.5,-481 663.5,-481 663.5,-423 488.5,-423"/>
<polygon fill="#f5f5f5" stroke="transparent" points="489,-459 489,-481 664,-481 664,-459 489,-459"/>
<polygon fill="none" stroke="black" points="489,-459 489,-481 664,-481 664,-459 489,-459"/>
<text text-anchor="start" x="494" y="-468.2" font-family="Helvetica,sans-Serif" font-weight="bold" font-size="11.00">turnaround_tasks</text>
<text text-anchor="start" x="622" y="-467.2" font-family="Helvetica,sans-Serif" font-size="11.00">[table]</text>
<polygon fill="none" stroke="black" points="489,-441 489,-459 664,-459 664,-441 489,-441"/>
<text text-anchor="start" x="492" y="-447.2" font-family="Helvetica,sans-Serif" font-size="11.00">...</text>
<polygon fill="#ffffff" stroke="transparent" points="489,-423 489,-441 664,-441 664,-423 489,-423"/>
<polygon fill="none" stroke="black" points="489,-423 489,-441 664,-441 664,-423 489,-423"/>
<polygon fill="#ffffff" stroke="transparent" points="490,-424 490,-440 556,-440 556,-424 490,-424"/>
<text text-anchor="start" x="492" y="-429.2" font-family="Helvetica,sans-Serif" font-size="11.00">&lt; 2</text>
<polygon fill="#ffffff" stroke="transparent" points="556,-424 556,-440 610,-440 610,-424 556,-424"/>
<text text-anchor="start" x="579" y="-429.2" font-family="Helvetica,sans-Serif" font-size="11.00"> &#160;</text>
<polygon fill="#ffffff" stroke="transparent" points="610,-424 610,-440 663,-440 663,-424 610,-424"/>
<text text-anchor="start" x="653" y="-429.2" font-family="Helvetica,sans-Serif" font-size="11.00"> &#160;</text>
<polygon fill="black" stroke="black" points="556,-424 556,-440 556,-440 556,-424 556,-424"/>
<polygon fill="black" stroke="black" points="610,-424 610,-440 610,-440 610,-424 610,-424"/>
</a>
</g>
</g>
<!-- turnaround_tasks&#45;&gt;tenants -->
<g id="edge11" class="edge">
<title>turnaround_tasks:w&#45;&gt;tenants:e</title>
<path fill="none" stroke="black" stroke-dasharray="5,2" d="M473.38,-449.65C390.05,-446.13 210.24,-417.75 152,-457 115.1,-481.87 157,-549 112.5,-549"/>
<polygon fill="black" stroke="black" points="480,-449.81 487.91,-453.6 484,-449.91 488,-450 488,-450 488,-450 484,-449.91 488.09,-446.4 480,-449.81 480,-449.81"/>
<ellipse fill="none" stroke="black" cx="476.8" cy="-449.73" rx="3.2" ry="3.2"/>
</g>
<!-- turnaround_tasks&#45;&gt;turnaround_sessions -->
<g id="edge10" class="edge">
<title>turnaround_tasks:w&#45;&gt;turnaround_sessions:e</title>
<path fill="none" stroke="black" d="M473.32,-451.89C443.01,-460.31 437.61,-494 399,-494"/>
<polygon fill="black" stroke="black" points="480.07,-451.02 488.46,-453.57 484.03,-450.51 488,-450 488,-450 488,-450 484.03,-450.51 487.54,-446.43 480.07,-451.02 480.07,-451.02"/>
<ellipse fill="none" stroke="black" cx="476.89" cy="-451.43" rx="3.2" ry="3.2"/>
</g>
<!-- vehicle_speed_violations_hourly -->
<g id="node11" class="node">
<title>vehicle_speed_violations_hourly</title>
<g id="a_node11"><a xlink:href="../../tables/vehicle_speed_violations_hourly.html" xlink:title="vehicle_speed_violations_hourly" target="_top">
<polygon fill="#ffffff" stroke="transparent" points="160,-116 160,-156 438,-156 438,-116 160,-116"/>
<polygon fill="#f5f5f5" stroke="transparent" points="160,-134 160,-156 438,-156 438,-134 160,-134"/>
<polygon fill="none" stroke="black" points="160,-134 160,-156 438,-156 438,-134 160,-134"/>
<text text-anchor="start" x="165" y="-143.2" font-family="Helvetica,sans-Serif" font-weight="bold" font-size="11.00">vehicle_speed_violations_hourly</text>
<text text-anchor="start" x="398" y="-142.2" font-family="Helvetica,sans-Serif" font-size="11.00">[view]</text>
<polygon fill="none" stroke="black" points="160,-116 160,-134 438,-134 438,-116 160,-116"/>
<text text-anchor="start" x="163" y="-122.2" font-family="Helvetica,sans-Serif" font-size="11.00">...</text>
</a>
</g>
</g>
<!-- vehicle_speed_violations_hourly&#45;&gt;tenants -->
<g id="edge13" class="edge">
<title>vehicle_speed_violations_hourly:w&#45;&gt;tenants:e</title>
<path fill="none" stroke="black" stroke-dasharray="5,2" d="M145.1,-128.93C79.66,-171.67 201.92,-549 112.5,-549"/>
<polygon fill="black" stroke="black" points="151.3,-127.17 159.98,-128.46 155.15,-126.09 159,-125 159,-125 159,-125 155.15,-126.09 158.02,-121.54 151.3,-127.17 151.3,-127.17"/>
<ellipse fill="none" stroke="black" cx="148.22" cy="-128.04" rx="3.2" ry="3.2"/>
</g>
<!-- vehicles -->
<g id="node12" class="node">
<title>vehicles</title>
<g id="a_node12"><a xlink:href="../../tables/vehicles.html" xlink:title="vehicles" target="_top">
<polygon fill="#ffffff" stroke="transparent" points="246,-37 246,-95 352,-95 352,-37 246,-37"/>
<polygon fill="#f5f5f5" stroke="transparent" points="246,-73 246,-95 352,-95 352,-73 246,-73"/>
<polygon fill="none" stroke="black" points="246,-73 246,-95 352,-95 352,-73 246,-73"/>
<text text-anchor="start" x="251" y="-82.2" font-family="Helvetica,sans-Serif" font-weight="bold" font-size="11.00">vehicles</text>
<text text-anchor="start" x="310" y="-81.2" font-family="Helvetica,sans-Serif" font-size="11.00">[table]</text>
<polygon fill="none" stroke="black" points="246,-55 246,-73 352,-73 352,-55 246,-55"/>
<text text-anchor="start" x="249" y="-61.2" font-family="Helvetica,sans-Serif" font-size="11.00">...</text>
<polygon fill="#ffffff" stroke="transparent" points="246,-37 246,-55 352,-55 352,-37 246,-37"/>
<polygon fill="none" stroke="black" points="246,-37 246,-55 352,-55 352,-37 246,-37"/>
<polygon fill="#ffffff" stroke="transparent" points="247,-38 247,-54 290,-54 290,-38 247,-38"/>
<text text-anchor="start" x="249" y="-43.2" font-family="Helvetica,sans-Serif" font-size="11.00">&lt; 1</text>
<polygon fill="#ffffff" stroke="transparent" points="290,-38 290,-54 321,-54 321,-38 290,-38"/>
<text text-anchor="start" x="301.5" y="-43.2" font-family="Helvetica,sans-Serif" font-size="11.00"> &#160;</text>
<polygon fill="#ffffff" stroke="transparent" points="321,-38 321,-54 351,-54 351,-38 321,-38"/>
<text text-anchor="start" x="341" y="-43.2" font-family="Helvetica,sans-Serif" font-size="11.00"> &#160;</text>
<polygon fill="black" stroke="black" points="290,-38 290,-54 290,-54 290,-38 290,-38"/>
<polygon fill="black" stroke="black" points="321,-38 321,-54 321,-54 321,-38 321,-38"/>
</a>
</g>
</g>
<!-- vehicles&#45;&gt;tenants -->
<g id="edge14" class="edge">
<title>vehicles:w&#45;&gt;tenants:e</title>
<path fill="none" stroke="black" stroke-dasharray="5,2" d="M230.47,-64.23C194.74,-65.55 175.29,-73.22 152,-106 123.38,-146.28 161.92,-549 112.5,-549"/>
<polygon fill="black" stroke="black" points="237,-64.13 245.06,-67.6 241,-64.06 245,-64 245,-64 245,-64 241,-64.06 244.94,-60.4 237,-64.13 237,-64.13"/>
<ellipse fill="none" stroke="black" cx="233.8" cy="-64.18" rx="3.2" ry="3.2"/>
</g>
</g>
</svg>
