<?xml version="1.0" encoding="UTF-8" standalone="no"?>
<!DOCTYPE svg PUBLIC "-//W3C//DTD SVG 1.1//EN"
 "http://www.w3.org/Graphics/SVG/1.1/DTD/svg11.dtd">
<!-- Generated by graphviz version 2.43.0 (0)
 -->
<!-- Title: twoDegreesRelationshipsDiagram Pages: 1 -->
<svg width="533pt" height="370pt"
 viewBox="0.00 0.00 533.00 370.00" xmlns="http://www.w3.org/2000/svg" xmlns:xlink="http://www.w3.org/1999/xlink">
<g id="graph0" class="graph" transform="scale(1 1) rotate(0) translate(4 366)">
<title>twoDegreesRelationshipsDiagram</title>
<polygon fill="#ffffff" stroke="transparent" points="-4,4 -4,-366 529,-366 529,4 -4,4"/>
<text text-anchor="middle" x="79.5" y="-7.2" font-family="Helvetica,sans-Serif" font-size="11.00">Generated by SchemaSpy</text>
<!-- turnaround_alerts -->
<g id="node1" class="node">
<title>turnaround_alerts</title>
<g id="a_node1"><a xlink:href="../../tables/turnaround_alerts.html" xlink:title="turnaround_alerts" target="_top">
<polygon fill="#ffffff" stroke="transparent" points="297,-300 297,-358 475,-358 475,-300 297,-300"/>
<polygon fill="#f5f5f5" stroke="transparent" points="297,-336 297,-358 475,-358 475,-336 297,-336"/>
<polygon fill="none" stroke="black" points="297,-336 297,-358 475,-358 475,-336 297,-336"/>
<text text-anchor="start" x="302" y="-345.2" font-family="Helvetica,sans-Serif" font-weight="bold" font-size="11.00">turnaround_alerts</text>
<text text-anchor="start" x="433" y="-344.2" font-family="Helvetica,sans-Serif" font-size="11.00">[table]</text>
<polygon fill="none" stroke="black" points="297,-318 297,-336 475,-336 475,-318 297,-318"/>
<text text-anchor="start" x="300" y="-324.2" font-family="Helvetica,sans-Serif" font-size="11.00">...</text>
<polygon fill="#ffffff" stroke="transparent" points="297,-300 297,-318 475,-318 475,-300 297,-300"/>
<polygon fill="none" stroke="black" points="297,-300 297,-318 475,-318 475,-300 297,-300"/>
<polygon fill="#ffffff" stroke="transparent" points="298,-301 298,-317 365,-317 365,-301 298,-301"/>
<text text-anchor="start" x="300" y="-306.2" font-family="Helvetica,sans-Serif" font-size="11.00">&lt; 1</text>
<polygon fill="#ffffff" stroke="transparent" points="365,-301 365,-317 420,-317 420,-301 365,-301"/>
<text text-anchor="start" x="388.5" y="-306.2" font-family="Helvetica,sans-Serif" font-size="11.00"> &#160;</text>
<polygon fill="#ffffff" stroke="transparent" points="420,-301 420,-317 474,-317 474,-301 420,-301"/>
<text text-anchor="start" x="464" y="-306.2" font-family="Helvetica,sans-Serif" font-size="11.00"> &#160;</text>
<polygon fill="black" stroke="black" points="365,-301 365,-317 365,-317 365,-301 365,-301"/>
<polygon fill="black" stroke="black" points="420,-301 420,-317 420,-317 420,-301 420,-301"/>
</a>
</g>
</g>
<!-- turnaround_sessions -->
<g id="node2" class="node">
<title>turnaround_sessions</title>
<g id="a_node2"><a xlink:href="../../tables/turnaround_sessions.html" xlink:title="turnaround_sessions" target="_top">
<polygon fill="#ffffff" stroke="transparent" points="8,-172 8,-296 206,-296 206,-172 8,-172"/>
<polygon fill="#f5f5f5" stroke="transparent" points="8,-274 8,-296 206,-296 206,-274 8,-274"/>
<polygon fill="none" stroke="black" points="8,-274 8,-296 206,-296 206,-274 8,-274"/>
<text text-anchor="start" x="13" y="-283.2" font-family="Helvetica,sans-Serif" font-weight="bold" font-size="11.00">turnaround_sessions</text>
<text text-anchor="start" x="164" y="-282.2" font-family="Helvetica,sans-Serif" font-size="11.00">[table]</text>
<polygon fill="none" stroke="black" points="8,-252 8,-274 206,-274 206,-252 8,-252"/>
<image xlink:href="../../images/primaryKeys.png" width="11px" height="12px" preserveAspectRatio="xMinYMin meet" x="13" y="-269"/>
<text text-anchor="start" x="41" y="-260.2" font-family="Helvetica,sans-Serif" font-size="11.00">id</text>
<polygon fill="#ffffff" stroke="transparent" points="8,-230 8,-252 206,-252 206,-230 8,-230"/>
<polygon fill="none" stroke="black" points="8,-230 8,-252 206,-252 206,-230 8,-230"/>
<image xlink:href="../../images/foreignKeys.png" width="11px" height="12px" preserveAspectRatio="xMinYMin meet" x="13" y="-247"/>
<text text-anchor="start" x="41" y="-238.2" font-family="Helvetica,sans-Serif" font-size="11.00">tenant_code</text>
<polygon fill="#ffffff" stroke="transparent" points="8,-208 8,-230 206,-230 206,-208 8,-208"/>
<polygon fill="none" stroke="black" points="8,-208 8,-230 206,-230 206,-208 8,-208"/>
<text text-anchor="start" x="41" y="-216.2" font-family="Helvetica,sans-Serif" font-size="11.00">status</text>
<polygon fill="none" stroke="black" points="8,-190 8,-208 206,-208 206,-190 8,-190"/>
<text text-anchor="start" x="11" y="-196.2" font-family="Helvetica,sans-Serif" font-size="11.00">...</text>
<polygon fill="#ffffff" stroke="transparent" points="8,-172 8,-190 206,-190 206,-172 8,-172"/>
<polygon fill="none" stroke="black" points="8,-172 8,-190 206,-190 206,-172 8,-172"/>
<polygon fill="#ffffff" stroke="transparent" points="9,-173 9,-189 71,-189 71,-173 9,-173"/>
<text text-anchor="start" x="11" y="-178.2" font-family="Helvetica,sans-Serif" font-size="11.00"> &#160;</text>
<polygon fill="#ffffff" stroke="transparent" points="71,-173 71,-189 132,-189 132,-173 71,-173"/>
<text text-anchor="start" x="97.5" y="-178.2" font-family="Helvetica,sans-Serif" font-size="11.00"> &#160;</text>
<polygon fill="#ffffff" stroke="transparent" points="132,-173 132,-189 205,-189 205,-173 132,-173"/>
<text text-anchor="start" x="183" y="-178.2" font-family="Helvetica,sans-Serif" font-size="11.00">2 &gt;</text>
<polygon fill="black" stroke="black" points="71,-173 71,-189 71,-189 71,-173 71,-173"/>
<polygon fill="black" stroke="black" points="132,-173 132,-189 132,-189 132,-173 132,-173"/>
</a>
</g>
</g>
<!-- turnaround_alerts&#45;&gt;turnaround_sessions -->
<g id="edge1" class="edge">
<title>turnaround_alerts:w&#45;&gt;turnaround_sessions:e</title>
<path fill="none" stroke="black" d="M282.19,-321.98C258.26,-306.89 227.17,-263 207,-263"/>
<polygon fill="black" stroke="black" points="288.48,-324.27 294.77,-330.38 292.24,-325.63 296,-327 296,-327 296,-327 292.24,-325.63 297.23,-323.62 288.48,-324.27 288.48,-324.27"/>
<ellipse fill="none" stroke="black" cx="285.47" cy="-323.17" rx="3.2" ry="3.2"/>
</g>
<!-- turnaround_tasks -->
<g id="node3" class="node">
<title>turnaround_tasks</title>
<g id="a_node3"><a xlink:href="../../tables/turnaround_tasks.html" xlink:title="turnaround_tasks" target="_top">
<polygon fill="#ffffff" stroke="transparent" points="255,-37 255,-279 517,-279 517,-37 255,-37"/>
<polygon fill="#f5f5f5" stroke="transparent" points="257,-255 257,-277 515,-277 515,-255 257,-255"/>
<polygon fill="none" stroke="black" points="257,-255 257,-277 515,-277 515,-255 257,-255"/>
<text text-anchor="start" x="262" y="-264.2" font-family="Helvetica,sans-Serif" font-weight="bold" font-size="11.00">turnaround_tasks</text>
<text text-anchor="start" x="473" y="-263.2" font-family="Helvetica,sans-Serif" font-size="11.00">[table]</text>
<polygon fill="none" stroke="black" points="257,-233 257,-255 406,-255 406,-233 257,-233"/>
<image xlink:href="../../images/primaryKeys.png" width="11px" height="12px" preserveAspectRatio="xMinYMin meet" x="262" y="-250"/>
<text text-anchor="start" x="277" y="-241.2" font-family="Helvetica,sans-Serif" font-size="11.00">id</text>
<polygon fill="none" stroke="black" points="406,-233 406,-255 515,-255 515,-233 406,-233"/>
<text text-anchor="start" x="409" y="-241.2" font-family="Helvetica,sans-Serif" font-size="11.00">uuid[2147483647]</text>
<polygon fill="none" stroke="black" points="257,-211 257,-233 406,-233 406,-211 257,-211"/>
<image xlink:href="../../images/foreignKeys.png" width="11px" height="12px" preserveAspectRatio="xMinYMin meet" x="262" y="-228"/>
<text text-anchor="start" x="277" y="-219.2" font-family="Helvetica,sans-Serif" font-size="11.00">tenant_code</text>
<polygon fill="none" stroke="black" points="406,-211 406,-233 515,-233 515,-211 406,-211"/>
<text text-anchor="start" x="409" y="-219.2" font-family="Helvetica,sans-Serif" font-size="11.00">varchar[4]</text>
<polygon fill="#ffffff" stroke="transparent" points="257,-189 257,-211 406,-211 406,-189 257,-189"/>
<polygon fill="none" stroke="black" points="257,-189 257,-211 406,-211 406,-189 257,-189"/>
<image xlink:href="../../images/foreignKeys.png" width="11px" height="12px" preserveAspectRatio="xMinYMin meet" x="262" y="-206"/>
<text text-anchor="start" x="277" y="-197.2" font-family="Helvetica,sans-Serif" font-size="11.00">session_id</text>
<polygon fill="none" stroke="black" points="406,-189 406,-211 515,-211 515,-189 406,-189"/>
<text text-anchor="start" x="409" y="-197.2" font-family="Helvetica,sans-Serif" font-size="11.00">uuid[2147483647]</text>
<polygon fill="none" stroke="black" points="257,-167 257,-189 406,-189 406,-167 257,-167"/>
<text text-anchor="start" x="277" y="-175.2" font-family="Helvetica,sans-Serif" font-size="11.00">task_type</text>
<polygon fill="none" stroke="black" points="406,-167 406,-189 515,-189 515,-167 406,-167"/>
<text text-anchor="start" x="409" y="-175.2" font-family="Helvetica,sans-Serif" font-size="11.00">varchar[50]</text>
<polygon fill="none" stroke="black" points="257,-145 257,-167 406,-167 406,-145 257,-145"/>
<text text-anchor="start" x="277" y="-153.2" font-family="Helvetica,sans-Serif" font-size="11.00">status</text>
<polygon fill="none" stroke="black" points="406,-145 406,-167 515,-167 515,-145 406,-145"/>
<text text-anchor="start" x="409" y="-153.2" font-family="Helvetica,sans-Serif" font-size="11.00">varchar[20]</text>
<polygon fill="none" stroke="black" points="257,-123 257,-145 406,-145 406,-123 257,-123"/>
<text text-anchor="start" x="277" y="-131.2" font-family="Helvetica,sans-Serif" font-size="11.00">planned_start</text>
<polygon fill="none" stroke="black" points="406,-123 406,-145 515,-145 515,-123 406,-123"/>
<text text-anchor="start" x="409" y="-131.2" font-family="Helvetica,sans-Serif" font-size="11.00">timestamptz[35,6]</text>
<polygon fill="none" stroke="black" points="257,-101 257,-123 406,-123 406,-101 257,-101"/>
<text text-anchor="start" x="277" y="-109.2" font-family="Helvetica,sans-Serif" font-size="11.00">planned_end</text>
<polygon fill="none" stroke="black" points="406,-101 406,-123 515,-123 515,-101 406,-101"/>
<text text-anchor="start" x="409" y="-109.2" font-family="Helvetica,sans-Serif" font-size="11.00">timestamptz[35,6]</text>
<polygon fill="none" stroke="black" points="257,-79 257,-101 406,-101 406,-79 257,-79"/>
<text text-anchor="start" x="277" y="-87.2" font-family="Helvetica,sans-Serif" font-size="11.00">actual_start</text>
<polygon fill="none" stroke="black" points="406,-79 406,-101 515,-101 515,-79 406,-79"/>
<text text-anchor="start" x="409" y="-87.2" font-family="Helvetica,sans-Serif" font-size="11.00">timestamptz[35,6]</text>
<polygon fill="none" stroke="black" points="257,-57 257,-79 406,-79 406,-57 257,-57"/>
<text text-anchor="start" x="277" y="-65.2" font-family="Helvetica,sans-Serif" font-size="11.00">actual_end</text>
<polygon fill="none" stroke="black" points="406,-57 406,-79 515,-79 515,-57 406,-57"/>
<text text-anchor="start" x="409" y="-65.2" font-family="Helvetica,sans-Serif" font-size="11.00">timestamptz[35,6]</text>
<polygon fill="#ffffff" stroke="transparent" points="257,-39 257,-57 515,-57 515,-39 257,-39"/>
<polygon fill="none" stroke="black" points="257,-39 257,-57 515,-57 515,-39 257,-39"/>
<polygon fill="#ffffff" stroke="transparent" points="258,-40 258,-56 348,-56 348,-40 258,-40"/>
<text text-anchor="start" x="260" y="-45.2" font-family="Helvetica,sans-Serif" font-size="11.00">&lt; 1</text>
<polygon fill="#ffffff" stroke="transparent" points="348,-40 348,-56 425,-56 425,-40 348,-40"/>
<text text-anchor="start" x="382.5" y="-45.2" font-family="Helvetica,sans-Serif" font-size="11.00"> &#160;</text>
<polygon fill="#ffffff" stroke="transparent" points="425,-40 425,-56 514,-56 514,-40 425,-40"/>
<text text-anchor="start" x="492" y="-45.2" font-family="Helvetica,sans-Serif" font-size="11.00">0 &gt;</text>
<polygon fill="black" stroke="black" points="348,-40 348,-56 348,-56 348,-40 348,-40"/>
<polygon fill="black" stroke="black" points="425,-40 425,-56 425,-56 425,-40 425,-40"/>
<polygon fill="none" stroke="black" stroke-width="2" points="256,-38 256,-278 516,-278 516,-38 256,-38"/>
</a>
</g>
</g>
<!-- turnaround_tasks&#45;&gt;turnaround_sessions -->
<g id="edge2" class="edge">
<title>turnaround_tasks:w&#45;&gt;turnaround_sessions:e</title>
<path fill="none" stroke="black" d="M242.22,-204.94C226.38,-219.8 236.38,-263 207,-263"/>
<polygon fill="black" stroke="black" points="248.47,-202.7 257.22,-203.39 252.23,-201.35 256,-200 256,-200 256,-200 252.23,-201.35 254.78,-196.61 248.47,-202.7 248.47,-202.7"/>
<ellipse fill="none" stroke="black" cx="245.46" cy="-203.78" rx="3.2" ry="3.2"/>
</g>
</g>
</svg>
