<?xml version="1.0" encoding="UTF-8" standalone="no"?>
<!DOCTYPE svg PUBLIC "-//W3C//DTD SVG 1.1//EN"
 "http://www.w3.org/Graphics/SVG/1.1/DTD/svg11.dtd">
<!-- Generated by graphviz version 2.43.0 (0)
 -->
<!-- Title: twoDegreesRelationshipsDiagramImplied Pages: 1 -->
<svg width="765pt" height="727pt"
 viewBox="0.00 0.00 765.00 727.00" xmlns="http://www.w3.org/2000/svg" xmlns:xlink="http://www.w3.org/1999/xlink">
<g id="graph0" class="graph" transform="scale(1 1) rotate(0) translate(4 723)">
<title>twoDegreesRelationshipsDiagramImplied</title>
<polygon fill="#ffffff" stroke="transparent" points="-4,4 -4,-723 761,-723 761,4 -4,4"/>
<text text-anchor="middle" x="79.5" y="-7.2" font-family="Helvetica,sans-Serif" font-size="11.00">Generated by SchemaSpy</text>
<!-- audit_logs -->
<g id="node1" class="node">
<title>audit_logs</title>
<g id="a_node1"><a xlink:href="../../tables/audit_logs.html" xlink:title="audit_logs" target="_top">
<polygon fill="#ffffff" stroke="transparent" points="557.5,-631 557.5,-689 678.5,-689 678.5,-631 557.5,-631"/>
<polygon fill="#f5f5f5" stroke="transparent" points="558,-667 558,-689 679,-689 679,-667 558,-667"/>
<polygon fill="none" stroke="black" points="558,-667 558,-689 679,-689 679,-667 558,-667"/>
<text text-anchor="start" x="563" y="-676.2" font-family="Helvetica,sans-Serif" font-weight="bold" font-size="11.00">audit_logs</text>
<text text-anchor="start" x="637" y="-675.2" font-family="Helvetica,sans-Serif" font-size="11.00">[table]</text>
<polygon fill="none" stroke="black" points="558,-649 558,-667 679,-667 679,-649 558,-649"/>
<text text-anchor="start" x="561" y="-655.2" font-family="Helvetica,sans-Serif" font-size="11.00">...</text>
<polygon fill="#ffffff" stroke="transparent" points="558,-631 558,-649 679,-649 679,-631 558,-631"/>
<polygon fill="none" stroke="black" points="558,-631 558,-649 679,-649 679,-631 558,-631"/>
<polygon fill="#ffffff" stroke="transparent" points="559,-632 559,-648 607,-648 607,-632 559,-632"/>
<text text-anchor="start" x="561" y="-637.2" font-family="Helvetica,sans-Serif" font-size="11.00">&lt; 2</text>
<polygon fill="#ffffff" stroke="transparent" points="607,-632 607,-648 643,-648 643,-632 607,-632"/>
<text text-anchor="start" x="621" y="-637.2" font-family="Helvetica,sans-Serif" font-size="11.00"> &#160;</text>
<polygon fill="#ffffff" stroke="transparent" points="643,-632 643,-648 678,-648 678,-632 643,-632"/>
<text text-anchor="start" x="668" y="-637.2" font-family="Helvetica,sans-Serif" font-size="11.00"> &#160;</text>
<polygon fill="black" stroke="black" points="607,-632 607,-648 607,-648 607,-632 607,-632"/>
<polygon fill="black" stroke="black" points="643,-632 643,-648 643,-648 643,-632 643,-632"/>
</a>
</g>
</g>
<!-- tenants -->
<g id="node2" class="node">
<title>tenants</title>
<g id="a_node2"><a xlink:href="../../tables/tenants.html" xlink:title="tenants" target="_top">
<polygon fill="#ffffff" stroke="transparent" points="8,-358 8,-416 111,-416 111,-358 8,-358"/>
<polygon fill="#f5f5f5" stroke="transparent" points="8.5,-394 8.5,-416 111.5,-416 111.5,-394 8.5,-394"/>
<polygon fill="none" stroke="black" points="8.5,-394 8.5,-416 111.5,-416 111.5,-394 8.5,-394"/>
<text text-anchor="start" x="13.5" y="-403.2" font-family="Helvetica,sans-Serif" font-weight="bold" font-size="11.00">tenants</text>
<text text-anchor="start" x="69.5" y="-402.2" font-family="Helvetica,sans-Serif" font-size="11.00">[table]</text>
<polygon fill="none" stroke="black" points="8.5,-376 8.5,-394 111.5,-394 111.5,-376 8.5,-376"/>
<text text-anchor="start" x="11.5" y="-382.2" font-family="Helvetica,sans-Serif" font-size="11.00">...</text>
<polygon fill="#ffffff" stroke="transparent" points="8.5,-358 8.5,-376 111.5,-376 111.5,-358 8.5,-358"/>
<polygon fill="none" stroke="black" points="8.5,-358 8.5,-376 111.5,-376 111.5,-358 8.5,-358"/>
<polygon fill="#ffffff" stroke="transparent" points="9.5,-359 9.5,-375 37.5,-375 37.5,-359 9.5,-359"/>
<text text-anchor="start" x="11.5" y="-364.2" font-family="Helvetica,sans-Serif" font-size="11.00"> &#160;</text>
<polygon fill="#ffffff" stroke="transparent" points="37.5,-359 37.5,-375 64.5,-375 64.5,-359 37.5,-359"/>
<text text-anchor="start" x="47" y="-364.2" font-family="Helvetica,sans-Serif" font-size="11.00"> &#160;</text>
<polygon fill="#ffffff" stroke="transparent" points="64.5,-359 64.5,-375 110.5,-375 110.5,-359 64.5,-359"/>
<text text-anchor="start" x="81.5" y="-364.2" font-family="Helvetica,sans-Serif" font-size="11.00">11 &gt;</text>
<polygon fill="black" stroke="black" points="37.5,-359 37.5,-375 37.5,-375 37.5,-359 37.5,-359"/>
<polygon fill="black" stroke="black" points="64.5,-359 64.5,-375 64.5,-375 64.5,-359 64.5,-359"/>
</a>
</g>
</g>
<!-- audit_logs&#45;&gt;tenants -->
<g id="edge1" class="edge">
<title>audit_logs:w&#45;&gt;tenants:e</title>
<path fill="none" stroke="black" d="M542.48,-657.8C504.46,-656.69 490.15,-651.21 446,-647 380.69,-640.76 204.46,-659.4 152,-620 87.88,-571.85 68.66,-472.08 62.92,-420.11"/>
<polygon fill="black" stroke="black" points="549,-657.89 556.95,-661.6 553,-657.94 557,-658 557,-658 557,-658 553,-657.94 557.05,-654.4 549,-657.89 549,-657.89"/>
<ellipse fill="none" stroke="black" cx="545.8" cy="-657.85" rx="3.2" ry="3.2"/>
</g>
<!-- users -->
<g id="node3" class="node">
<title>users</title>
<g id="a_node3"><a xlink:href="../../tables/users.html" xlink:title="users" target="_top">
<polygon fill="#ffffff" stroke="transparent" points="256,-657 256,-715 342,-715 342,-657 256,-657"/>
<polygon fill="#f5f5f5" stroke="transparent" points="256,-693 256,-715 342,-715 342,-693 256,-693"/>
<polygon fill="none" stroke="black" points="256,-693 256,-715 342,-715 342,-693 256,-693"/>
<text text-anchor="start" x="261" y="-702.2" font-family="Helvetica,sans-Serif" font-weight="bold" font-size="11.00">users</text>
<text text-anchor="start" x="300" y="-701.2" font-family="Helvetica,sans-Serif" font-size="11.00">[table]</text>
<polygon fill="none" stroke="black" points="256,-675 256,-693 342,-693 342,-675 256,-675"/>
<text text-anchor="start" x="259" y="-681.2" font-family="Helvetica,sans-Serif" font-size="11.00">...</text>
<polygon fill="#ffffff" stroke="transparent" points="256,-657 256,-675 342,-675 342,-657 256,-657"/>
<polygon fill="none" stroke="black" points="256,-657 256,-675 342,-675 342,-657 256,-657"/>
<polygon fill="#ffffff" stroke="transparent" points="257,-658 257,-674 289,-674 289,-658 257,-658"/>
<text text-anchor="start" x="259" y="-663.2" font-family="Helvetica,sans-Serif" font-size="11.00">&lt; 1</text>
<polygon fill="#ffffff" stroke="transparent" points="289,-658 289,-674 309,-674 309,-658 289,-658"/>
<text text-anchor="start" x="295" y="-663.2" font-family="Helvetica,sans-Serif" font-size="11.00"> &#160;</text>
<polygon fill="#ffffff" stroke="transparent" points="309,-658 309,-674 341,-674 341,-658 309,-658"/>
<text text-anchor="start" x="319" y="-663.2" font-family="Helvetica,sans-Serif" font-size="11.00">1 &gt;</text>
<polygon fill="black" stroke="black" points="289,-658 289,-674 289,-674 289,-658 289,-658"/>
<polygon fill="black" stroke="black" points="309,-658 309,-674 309,-674 309,-658 309,-658"/>
</a>
</g>
</g>
<!-- audit_logs&#45;&gt;users -->
<g id="edge2" class="edge">
<title>audit_logs:w&#45;&gt;users:e</title>
<path fill="none" stroke="black" d="M542.43,-658.21C458.62,-660.67 433.76,-684 343,-684"/>
<polygon fill="black" stroke="black" points="549,-658.11 557.05,-661.6 553,-658.06 557,-658 557,-658 557,-658 553,-658.06 556.95,-654.4 549,-658.11 549,-658.11"/>
<ellipse fill="none" stroke="black" cx="545.8" cy="-658.16" rx="3.2" ry="3.2"/>
</g>
<!-- users&#45;&gt;tenants -->
<g id="edge12" class="edge">
<title>users:w&#45;&gt;tenants:e</title>
<path fill="none" stroke="black" d="M240.35,-683.79C201.45,-682.5 182.61,-674.71 152,-643 91.2,-580 70.47,-473.89 63.66,-420.22"/>
<polygon fill="black" stroke="black" points="247,-683.88 254.95,-687.6 251,-683.94 255,-684 255,-684 255,-684 251,-683.94 255.05,-680.4 247,-683.88 247,-683.88"/>
<ellipse fill="none" stroke="black" cx="243.8" cy="-683.84" rx="3.2" ry="3.2"/>
</g>
<!-- flights -->
<g id="node4" class="node">
<title>flights</title>
<g id="a_node4"><a xlink:href="../../tables/flights.html" xlink:title="flights" target="_top">
<polygon fill="#ffffff" stroke="transparent" points="252,-551 252,-609 346,-609 346,-551 252,-551"/>
<polygon fill="#f5f5f5" stroke="transparent" points="252,-587 252,-609 346,-609 346,-587 252,-587"/>
<polygon fill="none" stroke="black" points="252,-587 252,-609 346,-609 346,-587 252,-587"/>
<text text-anchor="start" x="257" y="-596.2" font-family="Helvetica,sans-Serif" font-weight="bold" font-size="11.00">flights</text>
<text text-anchor="start" x="304" y="-595.2" font-family="Helvetica,sans-Serif" font-size="11.00">[table]</text>
<polygon fill="none" stroke="black" points="252,-569 252,-587 346,-587 346,-569 252,-569"/>
<text text-anchor="start" x="255" y="-575.2" font-family="Helvetica,sans-Serif" font-size="11.00">...</text>
<polygon fill="#ffffff" stroke="transparent" points="252,-551 252,-569 346,-569 346,-551 252,-551"/>
<polygon fill="none" stroke="black" points="252,-551 252,-569 346,-569 346,-551 252,-551"/>
<polygon fill="#ffffff" stroke="transparent" points="253,-552 253,-568 292,-568 292,-552 253,-552"/>
<text text-anchor="start" x="255" y="-557.2" font-family="Helvetica,sans-Serif" font-size="11.00">&lt; 1</text>
<polygon fill="#ffffff" stroke="transparent" points="292,-552 292,-568 319,-568 319,-552 292,-552"/>
<text text-anchor="start" x="301.5" y="-557.2" font-family="Helvetica,sans-Serif" font-size="11.00"> &#160;</text>
<polygon fill="#ffffff" stroke="transparent" points="319,-552 319,-568 345,-568 345,-552 319,-552"/>
<text text-anchor="start" x="335" y="-557.2" font-family="Helvetica,sans-Serif" font-size="11.00"> &#160;</text>
<polygon fill="black" stroke="black" points="292,-552 292,-568 292,-568 292,-552 292,-552"/>
<polygon fill="black" stroke="black" points="319,-552 319,-568 319,-568 319,-552 319,-552"/>
</a>
</g>
</g>
<!-- flights&#45;&gt;tenants -->
<g id="edge3" class="edge">
<title>flights:w&#45;&gt;tenants:e</title>
<path fill="none" stroke="black" stroke-dasharray="5,2" d="M236.16,-577.71C200.15,-576.14 183.96,-567.71 152,-541 112.98,-508.39 86.48,-454.62 72.42,-420.02"/>
<polygon fill="black" stroke="black" points="243,-577.84 250.93,-581.6 247,-577.92 251,-578 251,-578 251,-578 247,-577.92 251.07,-574.4 243,-577.84 243,-577.84"/>
<ellipse fill="none" stroke="black" cx="239.8" cy="-577.78" rx="3.2" ry="3.2"/>
</g>
<!-- flights_hourly -->
<g id="node5" class="node">
<title>flights_hourly</title>
<g id="a_node5"><a xlink:href="../../tables/flights_hourly.html" xlink:title="flights_hourly" target="_top">
<polygon fill="#ffffff" stroke="transparent" points="226.5,-490 226.5,-530 371.5,-530 371.5,-490 226.5,-490"/>
<polygon fill="#f5f5f5" stroke="transparent" points="227,-508 227,-530 372,-530 372,-508 227,-508"/>
<polygon fill="none" stroke="black" points="227,-508 227,-530 372,-530 372,-508 227,-508"/>
<text text-anchor="start" x="232" y="-517.2" font-family="Helvetica,sans-Serif" font-weight="bold" font-size="11.00">flights_hourly</text>
<text text-anchor="start" x="332" y="-516.2" font-family="Helvetica,sans-Serif" font-size="11.00">[view]</text>
<polygon fill="none" stroke="black" points="227,-490 227,-508 372,-508 372,-490 227,-490"/>
<text text-anchor="start" x="230" y="-496.2" font-family="Helvetica,sans-Serif" font-size="11.00">...</text>
</a>
</g>
</g>
<!-- flights_hourly&#45;&gt;tenants -->
<g id="edge4" class="edge">
<title>flights_hourly:w&#45;&gt;tenants:e</title>
<path fill="none" stroke="black" stroke-dasharray="5,2" d="M211.31,-498.79C188.16,-497.96 176.71,-494.23 152,-480 125.89,-464.97 102.22,-440.45 85.49,-420.37"/>
<polygon fill="black" stroke="black" points="218,-498.89 225.95,-502.6 222,-498.94 226,-499 226,-499 226,-499 222,-498.94 226.05,-495.4 218,-498.89 218,-498.89"/>
<ellipse fill="none" stroke="black" cx="214.8" cy="-498.84" rx="3.2" ry="3.2"/>
</g>
<!-- sensor_alerts -->
<g id="node6" class="node">
<title>sensor_alerts</title>
<g id="a_node6"><a xlink:href="../../tables/sensor_alerts.html" xlink:title="sensor_alerts" target="_top">
<polygon fill="#ffffff" stroke="transparent" points="227,-411 227,-469 371,-469 371,-411 227,-411"/>
<polygon fill="#f5f5f5" stroke="transparent" points="227,-447 227,-469 371,-469 371,-447 227,-447"/>
<polygon fill="none" stroke="black" points="227,-447 227,-469 371,-469 371,-447 227,-447"/>
<text text-anchor="start" x="232" y="-456.2" font-family="Helvetica,sans-Serif" font-weight="bold" font-size="11.00">sensor_alerts</text>
<text text-anchor="start" x="329" y="-455.2" font-family="Helvetica,sans-Serif" font-size="11.00">[table]</text>
<polygon fill="none" stroke="black" points="227,-429 227,-447 371,-447 371,-429 227,-429"/>
<text text-anchor="start" x="230" y="-435.2" font-family="Helvetica,sans-Serif" font-size="11.00">...</text>
<polygon fill="#ffffff" stroke="transparent" points="227,-411 227,-429 371,-429 371,-411 227,-411"/>
<polygon fill="none" stroke="black" points="227,-411 227,-429 371,-429 371,-411 227,-411"/>
<polygon fill="#ffffff" stroke="transparent" points="228,-412 228,-428 284,-428 284,-412 228,-412"/>
<text text-anchor="start" x="230" y="-417.2" font-family="Helvetica,sans-Serif" font-size="11.00">&lt; 1</text>
<polygon fill="#ffffff" stroke="transparent" points="284,-412 284,-428 327,-428 327,-412 284,-412"/>
<text text-anchor="start" x="301.5" y="-417.2" font-family="Helvetica,sans-Serif" font-size="11.00"> &#160;</text>
<polygon fill="#ffffff" stroke="transparent" points="327,-412 327,-428 370,-428 370,-412 327,-412"/>
<text text-anchor="start" x="360" y="-417.2" font-family="Helvetica,sans-Serif" font-size="11.00"> &#160;</text>
<polygon fill="black" stroke="black" points="284,-412 284,-428 284,-428 284,-412 284,-412"/>
<polygon fill="black" stroke="black" points="327,-412 327,-428 327,-428 327,-412 327,-412"/>
</a>
</g>
</g>
<!-- sensor_alerts&#45;&gt;tenants -->
<g id="edge5" class="edge">
<title>sensor_alerts:w&#45;&gt;tenants:e</title>
<path fill="none" stroke="black" stroke-dasharray="5,2" d="M211.33,-437.42C179.22,-434.94 146.21,-424.91 119.3,-414.44"/>
<polygon fill="black" stroke="black" points="218.01,-437.68 225.86,-441.6 222,-437.84 226,-438 226,-438 226,-438 222,-437.84 226.14,-434.4 218.01,-437.68 218.01,-437.68"/>
<ellipse fill="none" stroke="black" cx="214.81" cy="-437.56" rx="3.2" ry="3.2"/>
</g>
<!-- turnaround_alerts -->
<g id="node7" class="node">
<title>turnaround_alerts</title>
<g id="a_node7"><a xlink:href="../../tables/turnaround_alerts.html" xlink:title="turnaround_alerts" target="_top">
<polygon fill="#ffffff" stroke="transparent" points="529,-340 529,-398 707,-398 707,-340 529,-340"/>
<polygon fill="#f5f5f5" stroke="transparent" points="529,-376 529,-398 707,-398 707,-376 529,-376"/>
<polygon fill="none" stroke="black" points="529,-376 529,-398 707,-398 707,-376 529,-376"/>
<text text-anchor="start" x="534" y="-385.2" font-family="Helvetica,sans-Serif" font-weight="bold" font-size="11.00">turnaround_alerts</text>
<text text-anchor="start" x="665" y="-384.2" font-family="Helvetica,sans-Serif" font-size="11.00">[table]</text>
<polygon fill="none" stroke="black" points="529,-358 529,-376 707,-376 707,-358 529,-358"/>
<text text-anchor="start" x="532" y="-364.2" font-family="Helvetica,sans-Serif" font-size="11.00">...</text>
<polygon fill="#ffffff" stroke="transparent" points="529,-340 529,-358 707,-358 707,-340 529,-340"/>
<polygon fill="none" stroke="black" points="529,-340 529,-358 707,-358 707,-340 529,-340"/>
<polygon fill="#ffffff" stroke="transparent" points="530,-341 530,-357 597,-357 597,-341 530,-341"/>
<text text-anchor="start" x="532" y="-346.2" font-family="Helvetica,sans-Serif" font-size="11.00">&lt; 2</text>
<polygon fill="#ffffff" stroke="transparent" points="597,-341 597,-357 652,-357 652,-341 597,-341"/>
<text text-anchor="start" x="620.5" y="-346.2" font-family="Helvetica,sans-Serif" font-size="11.00"> &#160;</text>
<polygon fill="#ffffff" stroke="transparent" points="652,-341 652,-357 706,-357 706,-341 652,-341"/>
<text text-anchor="start" x="696" y="-346.2" font-family="Helvetica,sans-Serif" font-size="11.00"> &#160;</text>
<polygon fill="black" stroke="black" points="597,-341 597,-357 597,-357 597,-341 597,-341"/>
<polygon fill="black" stroke="black" points="652,-341 652,-357 652,-357 652,-341 652,-341"/>
</a>
</g>
</g>
<!-- turnaround_alerts&#45;&gt;tenants -->
<g id="edge7" class="edge">
<title>turnaround_alerts:w&#45;&gt;tenants:e</title>
<path fill="none" stroke="black" stroke-dasharray="5,2" d="M513.36,-367.29C488.17,-368.37 477.09,-372.15 446,-374 330.35,-380.88 194.96,-384.4 119.32,-385.96"/>
<polygon fill="black" stroke="black" points="520,-367.16 528.07,-370.6 524,-367.08 528,-367 528,-367 528,-367 524,-367.08 527.93,-363.4 520,-367.16 520,-367.16"/>
<ellipse fill="none" stroke="black" cx="516.8" cy="-367.23" rx="3.2" ry="3.2"/>
</g>
<!-- turnaround_sessions -->
<g id="node8" class="node">
<title>turnaround_sessions</title>
<g id="a_node8"><a xlink:href="../../tables/turnaround_sessions.html" xlink:title="turnaround_sessions" target="_top">
<polygon fill="#ffffff" stroke="transparent" points="200,-305 200,-363 398,-363 398,-305 200,-305"/>
<polygon fill="#f5f5f5" stroke="transparent" points="200,-341 200,-363 398,-363 398,-341 200,-341"/>
<polygon fill="none" stroke="black" points="200,-341 200,-363 398,-363 398,-341 200,-341"/>
<text text-anchor="start" x="205" y="-350.2" font-family="Helvetica,sans-Serif" font-weight="bold" font-size="11.00">turnaround_sessions</text>
<text text-anchor="start" x="356" y="-349.2" font-family="Helvetica,sans-Serif" font-size="11.00">[table]</text>
<polygon fill="none" stroke="black" points="200,-323 200,-341 398,-341 398,-323 200,-323"/>
<text text-anchor="start" x="203" y="-329.2" font-family="Helvetica,sans-Serif" font-size="11.00">...</text>
<polygon fill="#ffffff" stroke="transparent" points="200,-305 200,-323 398,-323 398,-305 200,-305"/>
<polygon fill="none" stroke="black" points="200,-305 200,-323 398,-323 398,-305 200,-305"/>
<polygon fill="#ffffff" stroke="transparent" points="201,-306 201,-322 271,-322 271,-306 201,-306"/>
<text text-anchor="start" x="203" y="-311.2" font-family="Helvetica,sans-Serif" font-size="11.00">&lt; 1</text>
<polygon fill="#ffffff" stroke="transparent" points="271,-306 271,-322 328,-322 328,-306 271,-306"/>
<text text-anchor="start" x="295.5" y="-311.2" font-family="Helvetica,sans-Serif" font-size="11.00"> &#160;</text>
<polygon fill="#ffffff" stroke="transparent" points="328,-306 328,-322 397,-322 397,-306 328,-306"/>
<text text-anchor="start" x="375" y="-311.2" font-family="Helvetica,sans-Serif" font-size="11.00">2 &gt;</text>
<polygon fill="black" stroke="black" points="271,-306 271,-322 271,-322 271,-306 271,-306"/>
<polygon fill="black" stroke="black" points="328,-306 328,-322 328,-322 328,-306 328,-306"/>
</a>
</g>
</g>
<!-- turnaround_alerts&#45;&gt;turnaround_sessions -->
<g id="edge6" class="edge">
<title>turnaround_alerts:w&#45;&gt;turnaround_sessions:e</title>
<path fill="none" stroke="black" d="M513.33,-366.79C477.54,-365.76 439.84,-361.22 406.25,-355.83"/>
<polygon fill="black" stroke="black" points="520,-366.88 527.95,-370.6 524,-366.94 528,-367 528,-367 528,-367 524,-366.94 528.05,-363.4 520,-366.88 520,-366.88"/>
<ellipse fill="none" stroke="black" cx="516.8" cy="-366.84" rx="3.2" ry="3.2"/>
</g>
<!-- turnaround_sessions&#45;&gt;tenants -->
<g id="edge9" class="edge">
<title>turnaround_sessions:w&#45;&gt;tenants:e</title>
<path fill="none" stroke="black" stroke-dasharray="5,2" d="M177.67,-360.85C157.3,-365.4 136.99,-369.93 119.15,-373.91"/>
<polygon fill="black" stroke="black" points="183.95,-359.45 192.54,-361.22 187.85,-358.58 191.75,-357.71 191.75,-357.71 191.75,-357.71 187.85,-358.58 190.97,-354.2 183.95,-359.45 183.95,-359.45"/>
<ellipse fill="none" stroke="black" cx="180.82" cy="-360.15" rx="3.2" ry="3.2"/>
</g>
<!-- turnaround_events -->
<g id="node9" class="node">
<title>turnaround_events</title>
<g id="a_node9"><a xlink:href="../../tables/turnaround_events.html" xlink:title="turnaround_events" target="_top">
<polygon fill="#ffffff" stroke="transparent" points="206.5,-226 206.5,-284 391.5,-284 391.5,-226 206.5,-226"/>
<polygon fill="#f5f5f5" stroke="transparent" points="207,-262 207,-284 392,-284 392,-262 207,-262"/>
<polygon fill="none" stroke="black" points="207,-262 207,-284 392,-284 392,-262 207,-262"/>
<text text-anchor="start" x="212" y="-271.2" font-family="Helvetica,sans-Serif" font-weight="bold" font-size="11.00">turnaround_events</text>
<text text-anchor="start" x="350" y="-270.2" font-family="Helvetica,sans-Serif" font-size="11.00">[table]</text>
<polygon fill="none" stroke="black" points="207,-244 207,-262 392,-262 392,-244 207,-244"/>
<text text-anchor="start" x="210" y="-250.2" font-family="Helvetica,sans-Serif" font-size="11.00">...</text>
<polygon fill="#ffffff" stroke="transparent" points="207,-226 207,-244 392,-244 392,-226 207,-226"/>
<polygon fill="none" stroke="black" points="207,-226 207,-244 392,-244 392,-226 207,-226"/>
<polygon fill="#ffffff" stroke="transparent" points="208,-227 208,-243 277,-243 277,-227 208,-227"/>
<text text-anchor="start" x="210" y="-232.2" font-family="Helvetica,sans-Serif" font-size="11.00">&lt; 1</text>
<polygon fill="#ffffff" stroke="transparent" points="277,-227 277,-243 334,-243 334,-227 277,-227"/>
<text text-anchor="start" x="301.5" y="-232.2" font-family="Helvetica,sans-Serif" font-size="11.00"> &#160;</text>
<polygon fill="#ffffff" stroke="transparent" points="334,-227 334,-243 391,-243 391,-227 334,-227"/>
<text text-anchor="start" x="381" y="-232.2" font-family="Helvetica,sans-Serif" font-size="11.00"> &#160;</text>
<polygon fill="black" stroke="black" points="277,-227 277,-243 277,-243 277,-227 277,-227"/>
<polygon fill="black" stroke="black" points="334,-227 334,-243 334,-243 334,-227 334,-227"/>
</a>
</g>
</g>
<!-- turnaround_events&#45;&gt;tenants -->
<g id="edge8" class="edge">
<title>turnaround_events:w&#45;&gt;tenants:e</title>
<path fill="none" stroke="black" stroke-dasharray="5,2" d="M191.33,-254.25C139.09,-263.13 99.07,-317.53 77.73,-353.88"/>
<polygon fill="black" stroke="black" points="198.03,-253.68 206.3,-256.59 202.01,-253.34 206,-253 206,-253 206,-253 202.01,-253.34 205.7,-249.41 198.03,-253.68 198.03,-253.68"/>
<ellipse fill="none" stroke="black" cx="194.84" cy="-253.95" rx="3.2" ry="3.2"/>
</g>
<!-- turnaround_tasks -->
<g id="node10" class="node">
<title>turnaround_tasks</title>
<g id="a_node10"><a xlink:href="../../tables/turnaround_tasks.html" xlink:title="turnaround_tasks" target="_top">
<polygon fill="#ffffff" stroke="transparent" points="487,-37 487,-279 749,-279 749,-37 487,-37"/>
<polygon fill="#f5f5f5" stroke="transparent" points="489,-255 489,-277 747,-277 747,-255 489,-255"/>
<polygon fill="none" stroke="black" points="489,-255 489,-277 747,-277 747,-255 489,-255"/>
<text text-anchor="start" x="494" y="-264.2" font-family="Helvetica,sans-Serif" font-weight="bold" font-size="11.00">turnaround_tasks</text>
<text text-anchor="start" x="705" y="-263.2" font-family="Helvetica,sans-Serif" font-size="11.00">[table]</text>
<polygon fill="none" stroke="black" points="489,-233 489,-255 638,-255 638,-233 489,-233"/>
<image xlink:href="../../images/primaryKeys.png" width="11px" height="12px" preserveAspectRatio="xMinYMin meet" x="494" y="-250"/>
<text text-anchor="start" x="509" y="-241.2" font-family="Helvetica,sans-Serif" font-size="11.00">id</text>
<polygon fill="none" stroke="black" points="638,-233 638,-255 747,-255 747,-233 638,-233"/>
<text text-anchor="start" x="641" y="-241.2" font-family="Helvetica,sans-Serif" font-size="11.00">uuid[2147483647]</text>
<polygon fill="none" stroke="black" points="489,-211 489,-233 638,-233 638,-211 489,-211"/>
<image xlink:href="../../images/foreignKeys.png" width="11px" height="12px" preserveAspectRatio="xMinYMin meet" x="494" y="-228"/>
<text text-anchor="start" x="509" y="-219.2" font-family="Helvetica,sans-Serif" font-size="11.00">tenant_code</text>
<polygon fill="none" stroke="black" points="638,-211 638,-233 747,-233 747,-211 638,-211"/>
<text text-anchor="start" x="641" y="-219.2" font-family="Helvetica,sans-Serif" font-size="11.00">varchar[4]</text>
<polygon fill="#ffffff" stroke="transparent" points="489,-189 489,-211 638,-211 638,-189 489,-189"/>
<polygon fill="none" stroke="black" points="489,-189 489,-211 638,-211 638,-189 489,-189"/>
<image xlink:href="../../images/foreignKeys.png" width="11px" height="12px" preserveAspectRatio="xMinYMin meet" x="494" y="-206"/>
<text text-anchor="start" x="509" y="-197.2" font-family="Helvetica,sans-Serif" font-size="11.00">session_id</text>
<polygon fill="none" stroke="black" points="638,-189 638,-211 747,-211 747,-189 638,-189"/>
<text text-anchor="start" x="641" y="-197.2" font-family="Helvetica,sans-Serif" font-size="11.00">uuid[2147483647]</text>
<polygon fill="none" stroke="black" points="489,-167 489,-189 638,-189 638,-167 489,-167"/>
<text text-anchor="start" x="509" y="-175.2" font-family="Helvetica,sans-Serif" font-size="11.00">task_type</text>
<polygon fill="none" stroke="black" points="638,-167 638,-189 747,-189 747,-167 638,-167"/>
<text text-anchor="start" x="641" y="-175.2" font-family="Helvetica,sans-Serif" font-size="11.00">varchar[50]</text>
<polygon fill="none" stroke="black" points="489,-145 489,-167 638,-167 638,-145 489,-145"/>
<text text-anchor="start" x="509" y="-153.2" font-family="Helvetica,sans-Serif" font-size="11.00">status</text>
<polygon fill="none" stroke="black" points="638,-145 638,-167 747,-167 747,-145 638,-145"/>
<text text-anchor="start" x="641" y="-153.2" font-family="Helvetica,sans-Serif" font-size="11.00">varchar[20]</text>
<polygon fill="none" stroke="black" points="489,-123 489,-145 638,-145 638,-123 489,-123"/>
<text text-anchor="start" x="509" y="-131.2" font-family="Helvetica,sans-Serif" font-size="11.00">planned_start</text>
<polygon fill="none" stroke="black" points="638,-123 638,-145 747,-145 747,-123 638,-123"/>
<text text-anchor="start" x="641" y="-131.2" font-family="Helvetica,sans-Serif" font-size="11.00">timestamptz[35,6]</text>
<polygon fill="none" stroke="black" points="489,-101 489,-123 638,-123 638,-101 489,-101"/>
<text text-anchor="start" x="509" y="-109.2" font-family="Helvetica,sans-Serif" font-size="11.00">planned_end</text>
<polygon fill="none" stroke="black" points="638,-101 638,-123 747,-123 747,-101 638,-101"/>
<text text-anchor="start" x="641" y="-109.2" font-family="Helvetica,sans-Serif" font-size="11.00">timestamptz[35,6]</text>
<polygon fill="none" stroke="black" points="489,-79 489,-101 638,-101 638,-79 489,-79"/>
<text text-anchor="start" x="509" y="-87.2" font-family="Helvetica,sans-Serif" font-size="11.00">actual_start</text>
<polygon fill="none" stroke="black" points="638,-79 638,-101 747,-101 747,-79 638,-79"/>
<text text-anchor="start" x="641" y="-87.2" font-family="Helvetica,sans-Serif" font-size="11.00">timestamptz[35,6]</text>
<polygon fill="none" stroke="black" points="489,-57 489,-79 638,-79 638,-57 489,-57"/>
<text text-anchor="start" x="509" y="-65.2" font-family="Helvetica,sans-Serif" font-size="11.00">actual_end</text>
<polygon fill="none" stroke="black" points="638,-57 638,-79 747,-79 747,-57 638,-57"/>
<text text-anchor="start" x="641" y="-65.2" font-family="Helvetica,sans-Serif" font-size="11.00">timestamptz[35,6]</text>
<polygon fill="#ffffff" stroke="transparent" points="489,-39 489,-57 747,-57 747,-39 489,-39"/>
<polygon fill="none" stroke="black" points="489,-39 489,-57 747,-57 747,-39 489,-39"/>
<polygon fill="#ffffff" stroke="transparent" points="490,-40 490,-56 580,-56 580,-40 490,-40"/>
<text text-anchor="start" x="492" y="-45.2" font-family="Helvetica,sans-Serif" font-size="11.00">&lt; 2</text>
<polygon fill="#ffffff" stroke="transparent" points="580,-40 580,-56 657,-56 657,-40 580,-40"/>
<text text-anchor="start" x="614.5" y="-45.2" font-family="Helvetica,sans-Serif" font-size="11.00"> &#160;</text>
<polygon fill="#ffffff" stroke="transparent" points="657,-40 657,-56 746,-56 746,-40 657,-40"/>
<text text-anchor="start" x="724" y="-45.2" font-family="Helvetica,sans-Serif" font-size="11.00">0 &gt;</text>
<polygon fill="black" stroke="black" points="580,-40 580,-56 580,-56 580,-40 580,-40"/>
<polygon fill="black" stroke="black" points="657,-40 657,-56 657,-56 657,-40 657,-40"/>
<polygon fill="none" stroke="black" stroke-width="2" points="488,-38 488,-278 748,-278 748,-38 488,-38"/>
</a>
</g>
</g>
<!-- turnaround_tasks&#45;&gt;tenants -->
<g id="edge11" class="edge">
<title>turnaround_tasks:w&#45;&gt;tenants:e</title>
<path fill="none" stroke="black" stroke-dasharray="5,2" d="M473.4,-220.83C464.88,-219.35 458.78,-216.91 446,-216 380.83,-211.37 208.05,-182.42 152,-216 102.18,-245.85 77.95,-313.11 67.45,-353.82"/>
<polygon fill="black" stroke="black" points="480.03,-221.36 487.71,-225.59 484.01,-221.68 488,-222 488,-222 488,-222 484.01,-221.68 488.29,-218.41 480.03,-221.36 480.03,-221.36"/>
<ellipse fill="none" stroke="black" cx="476.84" cy="-221.1" rx="3.2" ry="3.2"/>
</g>
<!-- turnaround_tasks&#45;&gt;turnaround_sessions -->
<g id="edge10" class="edge">
<title>turnaround_tasks:w&#45;&gt;turnaround_sessions:e</title>
<path fill="none" stroke="black" d="M473.75,-203.2C450.95,-216.65 476.42,-268.97 446,-295 434.44,-304.89 420.62,-312.31 406.16,-317.85"/>
<polygon fill="black" stroke="black" points="480.19,-201.76 488.79,-203.51 484.1,-200.88 488,-200 488,-200 488,-200 484.1,-200.88 487.21,-196.49 480.19,-201.76 480.19,-201.76"/>
<ellipse fill="none" stroke="black" cx="477.07" cy="-202.46" rx="3.2" ry="3.2"/>
</g>
<!-- vehicle_speed_violations_hourly -->
<g id="node11" class="node">
<title>vehicle_speed_violations_hourly</title>
<g id="a_node11"><a xlink:href="../../tables/vehicle_speed_violations_hourly.html" xlink:title="vehicle_speed_violations_hourly" target="_top">
<polygon fill="#ffffff" stroke="transparent" points="160,-138 160,-178 438,-178 438,-138 160,-138"/>
<polygon fill="#f5f5f5" stroke="transparent" points="160,-156 160,-178 438,-178 438,-156 160,-156"/>
<polygon fill="none" stroke="black" points="160,-156 160,-178 438,-178 438,-156 160,-156"/>
<text text-anchor="start" x="165" y="-165.2" font-family="Helvetica,sans-Serif" font-weight="bold" font-size="11.00">vehicle_speed_violations_hourly</text>
<text text-anchor="start" x="398" y="-164.2" font-family="Helvetica,sans-Serif" font-size="11.00">[view]</text>
<polygon fill="none" stroke="black" points="160,-138 160,-156 438,-156 438,-138 160,-138"/>
<text text-anchor="start" x="163" y="-144.2" font-family="Helvetica,sans-Serif" font-size="11.00">...</text>
</a>
</g>
</g>
<!-- vehicle_speed_violations_hourly&#45;&gt;tenants -->
<g id="edge13" class="edge">
<title>vehicle_speed_violations_hourly:w&#45;&gt;tenants:e</title>
<path fill="none" stroke="black" stroke-dasharray="5,2" d="M144.25,-148.41C69.39,-163.27 59.84,-291.9 59.65,-353.88"/>
<polygon fill="black" stroke="black" points="151.04,-147.76 159.34,-150.58 155.02,-147.38 159,-147 159,-147 159,-147 155.02,-147.38 158.66,-143.42 151.04,-147.76 151.04,-147.76"/>
<ellipse fill="none" stroke="black" cx="147.85" cy="-148.07" rx="3.2" ry="3.2"/>
</g>
<!-- vehicles -->
<g id="node12" class="node">
<title>vehicles</title>
<g id="a_node12"><a xlink:href="../../tables/vehicles.html" xlink:title="vehicles" target="_top">
<polygon fill="#ffffff" stroke="transparent" points="246,-59 246,-117 352,-117 352,-59 246,-59"/>
<polygon fill="#f5f5f5" stroke="transparent" points="246,-95 246,-117 352,-117 352,-95 246,-95"/>
<polygon fill="none" stroke="black" points="246,-95 246,-117 352,-117 352,-95 246,-95"/>
<text text-anchor="start" x="251" y="-104.2" font-family="Helvetica,sans-Serif" font-weight="bold" font-size="11.00">vehicles</text>
<text text-anchor="start" x="310" y="-103.2" font-family="Helvetica,sans-Serif" font-size="11.00">[table]</text>
<polygon fill="none" stroke="black" points="246,-77 246,-95 352,-95 352,-77 246,-77"/>
<text text-anchor="start" x="249" y="-83.2" font-family="Helvetica,sans-Serif" font-size="11.00">...</text>
<polygon fill="#ffffff" stroke="transparent" points="246,-59 246,-77 352,-77 352,-59 246,-59"/>
<polygon fill="none" stroke="black" points="246,-59 246,-77 352,-77 352,-59 246,-59"/>
<polygon fill="#ffffff" stroke="transparent" points="247,-60 247,-76 290,-76 290,-60 247,-60"/>
<text text-anchor="start" x="249" y="-65.2" font-family="Helvetica,sans-Serif" font-size="11.00">&lt; 1</text>
<polygon fill="#ffffff" stroke="transparent" points="290,-60 290,-76 321,-76 321,-60 290,-60"/>
<text text-anchor="start" x="301.5" y="-65.2" font-family="Helvetica,sans-Serif" font-size="11.00"> &#160;</text>
<polygon fill="#ffffff" stroke="transparent" points="321,-60 321,-76 351,-76 351,-60 321,-60"/>
<text text-anchor="start" x="341" y="-65.2" font-family="Helvetica,sans-Serif" font-size="11.00"> &#160;</text>
<polygon fill="black" stroke="black" points="290,-60 290,-76 290,-76 290,-60 290,-60"/>
<polygon fill="black" stroke="black" points="321,-60 321,-76 321,-76 321,-60 321,-60"/>
</a>
</g>
</g>
<!-- vehicles&#45;&gt;tenants -->
<g id="edge14" class="edge">
<title>vehicles:w&#45;&gt;tenants:e</title>
<path fill="none" stroke="black" stroke-dasharray="5,2" d="M230.16,-86.38C195.48,-88.36 179.09,-98.52 152,-128 92.15,-193.14 70.99,-299.87 63.88,-353.71"/>
<polygon fill="black" stroke="black" points="237,-86.21 245.09,-89.6 241,-86.1 245,-86 245,-86 245,-86 241,-86.1 244.91,-82.4 237,-86.21 237,-86.21"/>
<ellipse fill="none" stroke="black" cx="233.8" cy="-86.29" rx="3.2" ry="3.2"/>
</g>
</g>
</svg>
