<?xml version="1.0" encoding="UTF-8"?>
<svg id="Layer_2" data-name="Layer 2" xmlns="http://www.w3.org/2000/svg" viewBox="0 0 658.88 363.52">
  <defs>
    <style>
      .cls-1 {
        fill: #fff;
        fill-rule: evenodd;
      }
    </style>
  </defs>
  <g id="Layer_1-2" data-name="Layer 1">
    <g>
      <path class="cls-1" d="M589.97,190.6h-55.13c-15.11,0-27.56,12.58-27.56,27.84v42.56h-157.7c-5.83,0-10.6-4.82-10.6-10.71v-4.55c-.27-6.16-5.04-10.97-10.87-10.97h-142.06l-81.37,91.55h40.55c0-24.09,19.35-43.63,43.2-43.63s43.2,19.54,43.2,43.63h9.54c0-24.09,19.35-43.63,43.2-43.63s43.2,19.54,43.2,43.63h211.76c0-24.09,19.35-43.63,43.2-43.63s43.2,19.54,43.2,43.63h9.28c13.25,0,23.85-10.71,23.85-24.09v-41.76c0-38.28-31.01-69.87-68.91-69.87ZM507.28,300.62c-7.42,0-13.52-5.89-13.52-13.38v-18.2h13.52v31.59ZM586.52,253.77c0,.8-.53,1.34-1.32,1.34h-42.67c-.8,0-1.59-.8-1.59-1.34v-31.86c0-.8.8-1.34,1.59-1.34h42.67c.79,0,1.32.53,1.32,1.34v31.86ZM616.21,255.11c-.79,0-1.32-.53-1.32-1.34v-31.86c0-.8.53-1.34,1.32-1.34h20.14c8.22,9.64,13.25,21.68,14.58,34.53h-34.72Z"/>
      <path class="cls-1" d="M476.8,85.39c4.51,0,7.95-3.75,7.95-8.3V8.3c0-4.55-3.45-8.3-7.95-8.3h-203.81L0,307.31v19.01h95.94l214.41-240.92h166.44ZM301.08,74.15l-23.32-48.18c-1.32-2.94,0-6.69,2.92-8.03,2.92-1.61,6.36-.27,7.69,2.68l23.32,48.18c1.59,2.95.26,6.69-2.65,8.03-2.92,1.61-6.36.27-7.95-2.68Z"/>
      <path class="cls-1" d="M188.44,289.37c-20.41,0-36.84,16.6-36.84,36.94s16.43,37.21,36.84,37.21,36.84-16.6,36.84-37.21-16.43-36.94-36.84-36.94ZM188.44,339.7c-7.16,0-12.99-5.89-12.99-13.38s5.83-13.12,12.99-13.12,13.25,5.89,13.25,13.12-6.1,13.38-13.25,13.38Z"/>
      <path class="cls-1" d="M284.38,289.37c-20.14,0-36.57,16.6-36.57,36.94s16.43,37.21,36.57,37.21,36.84-16.6,36.84-37.21-16.43-36.94-36.84-36.94ZM284.38,339.7c-7.16,0-12.99-5.89-12.99-13.38s5.83-13.12,12.99-13.12,13.25,5.89,13.25,13.12-5.83,13.38-13.25,13.38Z"/>
      <path class="cls-1" d="M582.55,289.37c-20.41,0-36.84,16.6-36.84,36.94s16.43,37.21,36.84,37.21,36.84-16.6,36.84-37.21-16.7-36.94-36.84-36.94ZM582.55,339.7c-7.16,0-13.25-5.89-13.25-13.38s6.1-13.12,13.25-13.12,12.99,5.89,12.99,13.12-5.83,13.38-12.99,13.38Z"/>
    </g>
  </g>
</svg>