<?xml version="1.0" encoding="UTF-8"?>
<svg id="Layer_2" data-name="Layer 2" xmlns="http://www.w3.org/2000/svg" viewBox="0 0 304.24 336.4">
  <defs>
    <style>
      .cls-1 {
        fill: #fff;
        fill-rule: evenodd;
      }
    </style>
  </defs>
  <g id="Layer_1-2" data-name="Layer 1">
    <g>
      <path class="cls-1" d="M213.63,115.96c-2.85-13.74-10.2-25.83-20.43-34.68-11-9.52-25.35-15.28-41.09-15.28s-30.08,5.76-41.09,15.28c-10.2,8.82-17.51,20.86-20.39,34.54-.5-.09-.99-.13-1.5-.13h-4.99c-.25,0-.52.01-.78.04,3-15.8,11.29-29.73,22.99-39.85,12.28-10.62,28.27-17.04,45.76-17.04s33.49,6.42,45.77,17.04c11.68,10.11,19.99,24.02,22.99,39.81h-5.1c-.74,0-1.45.09-2.14.26"/>
      <path class="cls-1" d="M89.14,122.86h-4.98c-.47,0-.88.19-1.2.49-.3.31-.49.73-.49,1.2v19c0,.46.19.88.49,1.19.31.31.73.49,1.2.49h4.98c.45,0,.88-.19,1.2-.49.3-.31.49-.73.49-1.19v-19c0-.47-.19-.89-.49-1.2-.31-.31-.74-.49-1.2-.49"/>
      <path class="cls-1" d="M220.77,122.86h-4.98c-.47,0-.88.19-1.19.49s-.5.73-.5,1.2v19c0,.46.19.88.5,1.19.31.31.72.49,1.19.49h4.98c.46,0,.88-.19,1.19-.49.31-.31.5-.73.5-1.19v-19c0-.46-.19-.89-.5-1.2-.31-.31-.74-.49-1.19-.49"/>
      <path class="cls-1" d="M8.88,67.05c-.14.09-.28.16-.42.23-1.62.92-3.06,2.1-4.27,3.49C1.38,73.94-.23,78.19.03,82.77l5.92,72.35h0v.06c.19,2.98.7,5.86,1.49,8.62.78,2.76,1.87,5.38,3.24,7.86,1.38,2.5,3.03,4.83,4.94,6.95,1.91,2.14,4.1,4.11,6.56,5.88l59.86,43.2c.9.65,1.48,1.7,1.48,2.89v6.21c4.43-5.16,8.13-11.03,10.99-17.75,3.81-8.96,6.09-19.46,6.55-31.85l-58.82-29.6h0c-.16-.09-.33-.18-.48-.29-.33-.23-.61-.47-.83-.72-.34-.34-.59-.69-.81-1.07-.22-.39-.38-.83-.49-1.3-.08-.28-.13-.58-.15-.9v-.16s-5.93-72.26-5.93-72.26h.01v-.06c-.3-4.62-2.44-8.7-5.66-11.53h.01s-.01-.01-.01-.01c-.92-.82-1.93-1.53-3.03-2.13-.16-.08-.32-.16-.47-.26-2.58-1.31-5.54-1.97-8.65-1.78-2.48.16-4.8.84-6.85,1.94"/>
      <path class="cls-1" d="M22.7,58.68V0h-12.18v58.76c1.52-.41,3.11-.68,4.76-.78,2.55-.16,5.06.09,7.42.69"/>
      <path class="cls-1" d="M280.01,66.82c-.08.05-.17.09-.25.14-1.24.64-2.38,1.42-3.4,2.33-3.18,2.81-5.31,6.82-5.64,11.39v.2s-5.93,72.26-5.93,72.26h0c-.03.39-.08.75-.15,1.07-.11.47-.28.91-.5,1.31h-.01s0,0,0,0c-.22.39-.49.76-.79,1.07-.18.18-.39.37-.63.55-.21.18-.43.33-.69.46l-58.54,29.46c.43,12.45,2.74,23,6.54,31.99,2.79,6.58,6.42,12.34,10.71,17.41v-5.83c-.01-1.12.5-2.24,1.49-2.95l59.86-43.19c2.46-1.77,4.65-3.74,6.56-5.87,1.92-2.13,3.56-4.45,4.95-6.96,1.38-2.48,2.46-5.1,3.25-7.86.76-2.72,1.26-5.55,1.46-8.47,0-.07.01-.14.01-.21l5.92-72.26h0c.28-4.61-1.33-8.89-4.15-12.1-1.15-1.31-2.51-2.44-4.02-3.33-.15-.07-.29-.15-.42-.24-2.13-1.18-4.53-1.92-7.11-2.08-3.04-.19-5.96.44-8.5,1.71"/>
      <path class="cls-1" d="M294.03,58.85V0h-12.17v58.59c2.25-.54,4.65-.77,7.11-.62,1.74.11,3.44.41,5.06.87"/>
      <path class="cls-1" d="M108.04,190.29c-.71,12.1-3.12,22.52-6.96,31.54-4.26,10.03-10.25,18.34-17.55,25.31v14.74h65.02v-35.05l-24-29.77"/>
      <path class="cls-1" d="M220.71,246.88c-7.18-6.92-13.06-15.14-17.27-25.04-3.85-9.08-6.27-19.55-6.98-31.72l-16.76,6.95-23.99,29.77v35.05h64.99"/>
      <polyline class="cls-1" points="220.68 296.32 155.7 296.32 155.7 336.4 220.66 336.4"/>
      <polyline class="cls-1" points="148.55 296.32 83.57 296.32 83.6 336.4 148.55 336.4"/>
      <polyline class="cls-1" points="155.69 289.17 220.67 289.17 220.67 269.04 155.69 269.04"/>
      <polyline class="cls-1" points="148.55 269.04 83.56 269.04 83.56 283.16 83.57 289.17 148.55 289.17"/>
      <polyline class="cls-1" points="134.22 197.69 152.13 219.91 170.02 197.69"/>
      <path class="cls-1" d="M152.13,169.45c11.21,0,21.36-4.54,28.71-11.9,7.34-7.34,11.9-17.5,11.9-28.71s-4.56-21.37-11.9-28.72c-7.36-7.35-17.5-11.9-28.71-11.9s-21.37,4.55-28.73,11.9c-7.34,7.35-11.9,17.5-11.9,28.72s4.56,21.37,11.9,28.71c7.36,7.35,17.5,11.9,28.73,11.9"/>
    </g>
  </g>
</svg>